<svg width="1087" height="39" viewBox="0 0 1087 39" fill="none" xmlns="http://www.w3.org/2000/svg">
<path d="M9.50001 12.3558C10.8333 10.0224 14 5.85576 18.5 4.85576C23.4053 3.7657 29 3.85576 32.5 4.85576C33.1667 4.85576 34.7 4.65576 35.5 3.85576C36.5 2.85576 40 0.855754 44 2.85576L47 4.35576C48.5 4.02243 52.4 4.05576 56 6.85576C56.8333 7.52243 58.6 8.85576 59 8.85576C59.5 8.85576 63 7.85576 63 9.35576C63 10.5558 62.6667 10.8558 62.5 10.8558C63.6667 13.3558 65.4 18.3558 63 18.3558C64 20.0224 65.9 23.3558 65.5 23.3558C65 23.3558 65 24.8558 61.5 24.3558C60.8333 24.0224 59.4 23.2558 59 22.8558C58.5 22.3558 55 23.8558 53.5 20.3558C52.5 20.1891 50.7 20.1558 51.5 21.3558L56.5 28.8558C56.6667 29.0224 57 29.6558 57 30.8558C57 32.3115 57.9419 33.2963 58.9115 32.8961C59.441 32.8827 60.4 33.0558 60 33.8558C59.5 34.8558 61.5 34.8558 60.5 35.3558C59.5 35.8558 56.5 36.3558 56 35.8558C55.5 35.3558 52.5 34.8558 51.5 31.8558C50.5 28.8558 44.5 28.8558 44 26.8558C43.5679 25.1275 42.3891 24.5193 40.7862 24.386L38.5 30.3558C38 31.6891 37.1 34.4558 37.5 34.8558C38 35.3558 38.5 36.3558 39.5 35.8558C40.5 35.3558 43 35.8558 43 36.3558C43 36.8558 40 38.3558 39.5 38.3558C39 38.3558 34 37.8558 33.5 37.3558C33 36.8558 32.5 34.8558 33 34.8558C33.5 34.8558 30.5 31.3558 30.5 29.8558C30.5 28.3558 31.2411 27.3558 30.5 27.3558L30 27.2992C28.3248 27.7019 26.979 27.8348 26.5 27.3558L25.6678 27.8558C25.2792 29.4979 25.6396 33.4954 26 33.8558C26.5 34.3558 27 36.3558 29 35.3558C31 34.3558 31.5 37.3558 30.5 37.3558C29.5 37.3558 24.5 38.3558 23.5 37.8558C22.5 37.3558 20 37.8558 20.5 34.8558C20.9 32.4558 17.6667 28.8558 16 27.3558L15.5 25.8558C15.0301 26.5224 13.6722 27.9558 12 28.3558C9.90981 28.8558 7.00002 29.8558 7.00002 30.8558C7.00002 31.8558 5.00002 35.8558 6.50002 35.8558C8.00002 35.8558 8.5 35.3558 8.5 36.3558C8.5 37.3558 7.50004 38.3558 6.50002 37.8558C5.5 37.3558 1 36.3558 0.5 29.3558C0.666667 29.0224 1.1 28.4558 1.5 28.8558C3.00001 27.1891 6.10002 23.4558 6.50002 21.8558C6.97855 19.9416 8.37303 13.4477 9.36854 12.4552C9.40577 12.4145 9.44942 12.3811 9.50001 12.3558Z" fill="#7B6543"/>
<path d="M9.50001 12.3558C10.8333 10.0224 14 5.85576 18.5 4.85576C23.4053 3.7657 29 3.85576 32.5 4.85576C33.1667 4.85576 34.7 4.65576 35.5 3.85576C36.5 2.85576 40 0.855754 44 2.85576L47 4.35576C48.5 4.02243 52.4 4.05576 56 6.85576C56.8333 7.52243 58.6 8.85576 59 8.85576C59.5 8.85576 63 7.85576 63 9.35576C63 10.5558 62.6667 10.8558 62.5 10.8558C63.6667 13.3558 65.4 18.3558 63 18.3558C64 20.0224 65.9 23.3558 65.5 23.3558C65 23.3558 65 24.8558 61.5 24.3558C60.8333 24.0224 59.4 23.2558 59 22.8558C58.5 22.3558 55 23.8558 53.5 20.3558C52.5 20.1891 50.7 20.1558 51.5 21.3558C52.3 22.5558 55.1667 26.8558 56.5 28.8558C56.6667 29.0224 57 29.6558 57 30.8558C57 32.3115 57.9419 33.2963 58.9115 32.8961M9.50001 12.3558C8.70001 12.7558 9.63747 15.1891 10.2062 16.3558M9.50001 12.3558C8.50001 12.8558 7.00002 19.8558 6.50002 21.8558C6.10002 23.4558 3.00001 27.1891 1.5 28.8558C1.1 28.4558 0.666667 29.0224 0.5 29.3558C1 36.3558 5.5 37.3558 6.50002 37.8558C7.50004 38.3558 8.5 37.3558 8.5 36.3558C8.5 35.3558 8.00002 35.8558 6.50002 35.8558C5.00002 35.8558 7.00002 31.8558 7.00002 30.8558C7.00002 29.8558 9.90981 28.8558 12 28.3558C13.6722 27.9558 15.0301 26.5224 15.5 25.8558M59 32.8558C58.9705 32.8705 58.941 32.884 58.9115 32.8961M58.9115 32.8961C59.441 32.8827 60.4 33.0558 60 33.8558C59.5 34.8558 61.5 34.8558 60.5 35.3558C59.5 35.8558 56.5 36.3558 56 35.8558C55.5 35.3558 52.5 34.8558 51.5 31.8558C50.5 28.8558 44.5 28.8558 44 26.8558C43.5679 25.1275 42.3891 24.5193 40.7862 24.386M26.5 27.3558L25.6678 27.8558M26.5 27.3558C26.2991 27.1548 26.134 27.1154 26 27.199M26.5 27.3558C26.979 27.8348 28.3248 27.7019 30 27.2992M15.5 25.8558L16 27.3558C17.6667 28.8558 20.9 32.4558 20.5 34.8558C20 37.8558 22.5 37.3558 23.5 37.8558C24.5 38.3558 29.5 37.3558 30.5 37.3558C31.5 37.3558 31 34.3558 29 35.3558C27 36.3558 26.5 34.3558 26 33.8558C25.6396 33.4954 25.2792 29.4979 25.6678 27.8558M15.5 25.8558C13.961 24.3558 10.8063 20.3558 10.5 16.3558M25.6678 27.8558C25.7461 27.5249 25.8548 27.2897 26 27.199M26 27.199C26.4 24.1244 26.1667 23.0224 26 22.8558C25.1667 19.3558 23.6 12.1558 24 11.3558M51 20.8558C50.8333 17.3558 49.8 9.85576 47 7.85576M40.7862 24.386C40.5342 24.365 40.2717 24.3558 40 24.3558C38.6387 24.3558 33.5708 26.4407 30 27.2992M40.7862 24.386L38.5 30.3558C38 31.6891 37.1 34.4558 37.5 34.8558C38 35.3558 38.5 36.3558 39.5 35.8558C40.5 35.3558 43 35.8558 43 36.3558C43 36.8558 40 38.3558 39.5 38.3558C39 38.3558 34 37.8558 33.5 37.3558C33 36.8558 32.5 34.8558 33 34.8558C33.5 34.8558 30.5 31.3558 30.5 29.8558C30.5 28.3558 31.2411 27.3558 30.5 27.3558L30 27.2992M57.5 9.85576C57.1667 10.3558 56.8 11.3558 58 11.3558C59.2 11.3558 60.5 10.6891 61 10.3558M60.5 17.8558C60.8333 18.1891 61.5 18.7558 61.5 18.3558C61 17.8558 60.5 16.8558 60.5 17.3558M58.5 22.3558C58.3333 21.3558 58.3 19.4558 59.5 19.8558C61 20.3558 62.5 18.8558 62.5 18.8558" stroke="black" stroke-width="0.5"/>
<path d="M77 11.0654C78 10.0654 79.5 7.06539 84.5 5.56539C88.5 4.36539 95.1667 5.73205 98 6.56539C98.6667 6.73205 100.2 6.86538 101 6.06538C102 5.06538 104.5 2.56538 107.5 3.06538C110.5 3.56538 111 6.06538 116.5 6.06538C116.667 6.06539 117.1 6.16539 117.5 6.56539C118 7.06538 122.5 9.56538 124 10.0654C124.179 10.1251 124.346 10.1707 124.5 10.2045C125.379 10.3972 125.858 10.2072 126 10.0654C126.667 9.89872 128 9.86538 128 11.0654C128 12.2654 127.667 12.2321 127.5 12.0654C128.167 13.5654 129.3 16.7654 128.5 17.5654C128.333 17.8987 128 18.6654 128 19.0654C128 19.4654 128.667 21.8987 129 23.0654C129.5 23.3987 130.4 24.0654 130 24.0654C129.667 24.5654 128.8 25.4654 128 25.0654C127.333 25.0654 125.9 24.9654 125.5 24.5654C124.667 24.0654 123 22.9654 123 22.5654C122.833 23.0654 122.4 23.9654 122 23.5654L119 21.5654C118.667 21.5654 118 21.7654 118 22.5654C118 23.5654 120.5 30.5654 120.5 31.0654C120.5 31.5654 120 32.5654 120.5 33.5654C121 34.5654 122.5 36.5654 123 36.5654C123.4 36.5654 123.833 36.2321 124 36.0654C124.5 35.8987 125.6 35.7654 126 36.5654C126.4 37.3654 125.833 37.8987 125.5 38.0654H118.5C118 38.0654 117 36.5654 117 36.0654C117 35.6654 111.333 29.5654 108.5 26.5654C108.333 25.8987 108.1 24.4654 108.5 24.0654C107.833 24.232 106.3 24.4654 105.5 24.0654C105.108 23.8693 103.947 24.2882 102.5 24.87C101.5 26.2684 99.3 29.6654 98.5 32.0654C97.5 35.0654 99.5 35.5654 100.5 35.5654H103C104 35.5654 102.5 37.5654 102 37.5654H96.5C95.5 37.5654 94.5 36.5654 93.5 34.2833C92.7 32.4576 92.8333 28.8049 93 27.2068C91.9605 27.3043 90.8299 27.3681 87.5 27.0654C86.8333 28.8987 85.5 32.8654 85.5 34.0654C85.5 35.5654 86.5 36.0654 87 36.0654C87.5 36.0654 89.5 35.0654 89.5 36.0654C89.5 37.0654 88 38.0654 88.5 37.5654C86 38.2321 80.8 38.9654 80 36.5654C79.8975 35.9503 79.7697 34.9569 79.7797 34.2833C75.6034 34.4576 73.5198 30.8773 73 29.0654C72.6 28.6654 75.3951 25.232 76.8426 23.5654C75.5574 21.0331 73.7985 16.8191 74.5 15.0654C75 14.0654 76.2 11.8654 77 11.0654Z" fill="#7B6543"/>
<path d="M123 22.5654C123 22.9654 124.667 24.0654 125.5 24.5654C125.9 24.9654 127.333 25.0654 128 25.0654C128.8 25.4654 129.667 24.5654 130 24.0654C130.4 24.0654 129.5 23.3987 129 23.0654C128.667 21.8987 128 19.4654 128 19.0654C128 18.6654 128.333 17.8987 128.5 17.5654C129.3 16.7654 128.167 13.5654 127.5 12.0654C127.667 12.2321 128 12.2654 128 11.0654C128 9.86538 126.667 9.89872 126 10.0654C125.858 10.2072 125.379 10.3972 124.5 10.2045M123 22.5654C122.833 23.0654 122.4 23.9654 122 23.5654L119 21.5654C118.667 21.5654 118 21.7654 118 22.5654M123 22.5654C123.167 22.5654 123.5 22.4654 123.5 22.0654C123.5 21.5654 123.5 21.0654 124.5 21.0654C125.3 21.0654 126.833 20.7321 127.5 20.5654M118 22.5654C118 23.5654 120.5 30.5654 120.5 31.0654C120.5 31.5654 120 32.5654 120.5 33.5654C121 34.5654 122.5 36.5654 123 36.5654C123.4 36.5654 123.833 36.2321 124 36.0654C124.5 35.8987 125.6 35.7654 126 36.5654C126.4 37.3654 125.833 37.8987 125.5 38.0654C123.333 38.0654 118.9 38.0654 118.5 38.0654C118 38.0654 117 36.5654 117 36.0654C117 35.6654 111.333 29.5654 108.5 26.5654C108.333 25.8987 108.1 24.4654 108.5 24.0654M118 22.5654C117.5 21.7321 116.5 19.9654 116.5 19.5654C116.5 19.0654 115.5 17.5654 115.5 16.0654C115.5 14.5654 115 8.56538 113 8.06538M108.5 24.0654C108.667 23.3987 108.3 21.5654 105.5 19.5654M108.5 24.0654C107.833 24.2321 106.3 24.4654 105.5 24.0654C105.108 23.8693 103.947 24.2882 102.5 24.87M87.5 27.0654C88.3333 25.7321 89.8 21.0654 89 13.0654M87.5 27.0654C86.8333 28.8987 85.5 32.8654 85.5 34.0654C85.5 35.5654 86.5 36.0654 87 36.0654C87.5 36.0654 89.5 35.0654 89.5 36.0654C89.5 37.0654 88 38.0654 88.5 37.5654C86 38.2321 80.8 38.9654 80 36.5654C79.8975 35.9503 79.7697 34.9569 79.7797 34.2833M87.5 27.0654C90.8299 27.3681 91.9605 27.3043 93 27.2068M76.8426 23.5654C77.3896 24.643 77.8507 25.4161 78 25.5654C78.5 26.0654 80.5 33.5654 80 33.5654C79.846 33.5654 79.7859 33.8617 79.7797 34.2833M76.8426 23.5654C75.5574 21.0331 73.7985 16.8191 74.5 15.0654C75 14.0654 76.2 11.8654 77 11.0654C78 10.0654 79.5 7.06539 84.5 5.56539C88.5 4.36539 95.1667 5.73205 98 6.56539C98.6667 6.73205 100.2 6.86538 101 6.06538C102 5.06538 104.5 2.56538 107.5 3.06538C110.5 3.56538 111 6.06538 116.5 6.06538C116.667 6.06539 117.1 6.16539 117.5 6.56539C118 7.06538 122.5 9.56538 124 10.0654C124.179 10.1251 124.346 10.1707 124.5 10.2045M76.8426 23.5654C75.3951 25.2321 72.6 28.6654 73 29.0654C73.5198 30.8773 75.6034 34.4576 79.7797 34.2833M93 27.2068C93.6775 27.1432 94.3163 27.0654 95.5 27.0654C97.3237 27.0654 100.256 25.7719 102.5 24.87M93 27.2068C92.8333 28.8049 92.7 32.4576 93.5 34.2833C94.5 36.5654 95.5 37.5654 96.5 37.5654C97.5 37.5654 101.5 37.5654 102 37.5654C102.5 37.5654 104 35.5654 103 35.5654C102 35.5654 101.5 35.5654 100.5 35.5654C99.5 35.5654 97.5 35.0654 98.5 32.0654C99.3 29.6654 101.5 26.2684 102.5 24.87M124.5 10.2045C123.667 10.8248 122.2 12.1654 123 12.5654M123 14.0654C122.833 15.3987 122.8 18.1654 124 18.5654M125.5 19.0654C125.833 19.3987 126.5 19.9654 126.5 19.5654C126.5 19.0654 127 18.5654 126.5 18.5654" stroke="black" stroke-width="0.5"/>
<path d="M142 18.5558C141.833 16.7224 141.9 12.7558 143.5 11.5558C145 9.38909 149.3 4.95576 154.5 4.55576C161 4.05576 166.5 6.55576 167.5 5.55576C168.5 4.55576 172 1.55577 174 2.05577C176 2.55577 177.5 3.05577 180.5 4.55577C183.5 6.05577 185.5 4.05577 191.5 9.05577L192 9.55577C192.5 9.3891 193.6 9.05577 194 9.05577C194.5 9.05577 196 10.0558 195 11.0558C194.2 11.8558 194.667 12.0558 195 12.0558C195.833 13.0558 197.2 15.6558 196 18.0558L195.5 19.0558C195.833 19.8891 196.5 21.6558 196.5 22.0558C196.5 22.5558 198 23.5558 197.5 23.5558L196.5 24.0558H196C196 24.2224 195.8 24.5558 195 24.5558C194 24.5558 191.5 23.5558 191.5 23.0558C191.5 22.6558 190.167 22.8891 189.5 23.0558C188.667 22.8891 187 22.4558 187 22.0558C187 21.5558 188 21.0558 187 21.0558C186 21.0558 185.5 21.5558 185 21.5558C184.5 21.5558 182.5 22.5558 182 22.0558C181.975 22.0312 181.956 22.032 181.94 22.0558C181.644 22.515 183 31.5312 183 31.0558C183 30.5558 183.5 33.0558 183 33.5558C182.6 33.9558 184.5 35.3891 185.5 36.0558C186.333 35.7224 188 35.2558 188 36.0558C188 37.0558 188 37.5558 187 37.5558C186 37.5558 180.5 38.0558 180.5 37.5558C180.167 37.3891 179.5 36.9558 179.5 36.5558C179.5 36.0558 180 35.0558 179.5 35.0558C179 35.0558 173 27.0558 173 26.5558C173 26.4477 172.953 26.3396 172.88 26.2315L172.741 26.2951C172.533 28.0866 170.16 30.882 169 32.0558C168 32.5558 166 33.6558 166 34.0558C166 34.5558 164.5 36.5558 164 36.5558C163.5 36.5558 163.5 36.0558 164 35.5558C164.5 35.0558 164 35.0558 163.5 34.0558C163 33.0558 164 32.5558 164 32.0558C164 31.5558 166.5 30.0558 166 29.5558C165.6 29.1558 166.35 27.2153 166.775 26.2951C165.336 26.5818 164.182 26.7377 164 26.5558C162.445 26.6335 160.164 26.704 158.174 26.6759C157.725 27.0418 156.961 28.03 157.5 29.0558C158.174 30.338 159.5 32.0558 161 31.5558C162.5 31.0558 162.5 33.5558 161.5 34.0558C160.5 34.5558 158.5 35.0558 157 35.0558C155.5 35.0558 151 33.5558 151 33.0558C151 32.5558 152 32.0558 151.5 31.5558C151.1 31.1558 150.853 30.9526 150.779 30.901C149.935 32.474 149.307 33.8625 149.5 34.0558C150 34.5558 150 36.5558 153 35.5558C156 34.5558 154 38.0558 151 38.0558C148 38.0558 147 38.5558 145 37.5558C143 36.5558 143 35.0558 143 34.5558C143 34.1558 143.667 33.3891 144 33.0558C143.667 31.0558 143.1 26.7558 143.5 25.5558C142.833 23.7224 141.6 19.7558 142 18.5558Z" fill="#7B6543"/>
<path d="M192 9.55577L191.5 9.05577C185.5 4.05577 183.5 6.05577 180.5 4.55577C177.5 3.05577 176 2.55577 174 2.05577C172 1.55577 168.5 4.55576 167.5 5.55576C166.5 6.55576 161 4.05576 154.5 4.55576C149.3 4.95576 145 9.38909 143.5 11.5558C141.9 12.7558 141.833 16.7224 142 18.5558C141.6 19.7558 142.833 23.7224 143.5 25.5558C143.1 26.7558 143.667 31.0558 144 33.0558C143.667 33.3891 143 34.1558 143 34.5558C143 35.0558 143 36.5558 145 37.5558C147 38.5558 148 38.0558 151 38.0558C154 38.0558 156 34.5558 153 35.5558C150 36.5558 150 34.5558 149.5 34.0558C149.307 33.8625 149.935 32.474 150.779 30.901M192 9.55577C192.5 9.3891 193.6 9.05577 194 9.05577C194.5 9.05577 196 10.0558 195 11.0558C194.2 11.8558 194.667 12.0558 195 12.0558C195.833 13.0558 197.2 15.6558 196 18.0558L195.5 19.0558M192 9.55577C191.5 9.8891 190.3 10.6558 189.5 11.0558C188.7 11.4558 189.5 12.5558 190 13.0558M195.5 19.0558C195.833 19.8891 196.5 21.6558 196.5 22.0558C196.5 22.5558 198 23.5558 197.5 23.5558L196.5 24.0558H196C196 24.2224 195.8 24.5558 195 24.5558C194 24.5558 191.5 23.5558 191.5 23.0558C191.5 22.6558 190.167 22.8891 189.5 23.0558C188.667 22.8891 187 22.4558 187 22.0558C187 21.5558 188 21.0558 187 21.0558C186 21.0558 185.5 21.5558 185 21.5558C184.5 21.5558 182.5 22.5558 182 22.0558C181.975 22.0312 181.956 22.032 181.94 22.0558M195.5 19.0558C194.667 19.2224 193 19.6558 193 20.0558C193 20.5558 192 20.0558 191 20.0558C190.2 20.0558 191 21.7224 191.5 22.5558M172 25.0558C172 24.5558 174 20.0558 172 18.5558M172 25.0558C170.637 25.4193 168.501 25.9513 166.775 26.2951M172 25.0558C172 25.4477 172.614 25.8396 172.88 26.2315M154 26.0558C155.167 22.8891 157.2 16.5558 156 16.5558M154 26.0558C154 26.4826 155.897 26.6437 158.174 26.6759M154 26.0558C154 25.4423 152.118 28.4042 150.779 30.901M158.174 26.6759C160.164 26.704 162.445 26.6335 164 26.5558C164.182 26.7377 165.336 26.5818 166.775 26.2951M158.174 26.6759C157.725 27.0418 156.961 28.03 157.5 29.0558C158.174 30.338 159.5 32.0558 161 31.5558C162.5 31.0558 162.5 33.5558 161.5 34.0558C160.5 34.5558 158.5 35.0558 157 35.0558C155.5 35.0558 151 33.5558 151 33.0558C151 32.5558 152 32.0558 151.5 31.5558C151.1 31.1558 150.853 30.9526 150.779 30.901M166.775 26.2951C166.35 27.2153 165.6 29.1558 166 29.5558C166.5 30.0558 164 31.5558 164 32.0558C164 32.5558 163 33.0558 163.5 34.0558C164 35.0558 164.5 35.0558 164 35.5558C163.5 36.0558 163.5 36.5558 164 36.5558C164.5 36.5558 166 34.5558 166 34.0558C166 33.6558 168 32.5558 169 32.0558C170.16 30.882 172.533 28.0866 172.741 26.2951L172.88 26.2315M181.94 22.0558C181.644 22.515 183 31.5312 183 31.0558C183 30.5558 183.5 33.0558 183 33.5558C182.6 33.9558 184.5 35.3891 185.5 36.0558C186.333 35.7224 188 35.2558 188 36.0558C188 37.0558 188 37.5558 187 37.5558C186 37.5558 180.5 38.0558 180.5 37.5558C180.167 37.3891 179.5 36.9558 179.5 36.5558C179.5 36.0558 180 35.0558 179.5 35.0558C179 35.0558 173 27.0558 173 26.5558C173 26.4477 172.953 26.3396 172.88 26.2315M181.94 22.0558L181.5 21.5558C182 19.8891 182.9 16.3558 182.5 15.5558C182 14.5558 183.5 8.55577 180 7.05577M193.5 18.0558C194 18.0558 194.5 19.0558 194.5 18.5558C194.667 18.2224 194.9 17.5558 194.5 17.5558M192 12.0558C192.5 12.0558 193.5 11.9558 193.5 11.5558" stroke="black" stroke-width="0.5"/>
<path d="M209 14C209.167 13.3333 209.7 11.8 210.5 11C211.5 10 216.5 5 223 4.5C229.5 4 231.5 5 233.5 4.5C235.5 4 239.5 1 240.5 1C241.5 1 242.5 1 246.5 3.5C249.333 4 255.7 5.6 258.5 8C258.833 7.66667 259.7 7.1 260.5 7.5C261.3 7.9 261.833 8.33333 262 8.5C262.167 8.83333 262.2 9.5 261 9.5C262.167 10.6667 264.3 13.7 263.5 16.5L263 17.5C263.5 19 264.6 22 265 22C265.5 22 264 23.0044 263.5 22.7522C263 22.5 263 23.5 262.5 23.5C262.182 23.5 260.454 22.4919 259.234 21.5C258.656 21.6667 257.4 22 257 22C256.5 22 252.5 21.5 252.5 20.5C251.5 20.6667 249.4 20.7 249 19.5L247 20L250 26C250.333 26.3333 250.6 27.6 249 30C247.4 32.4 246.667 33 246.5 33C245.833 33.3333 244.4 33.9 244 33.5C243.83 33.3299 243.714 33.2743 243.637 33.2795C242.947 33.103 242.925 31.353 243 30.5L244.5 29C244.9 28.6 243.667 27.8333 243 27.5L242.979 26.715C242.749 28.134 242.61 29.6127 242.598 30.7813C242.586 31.9809 242.708 32.8538 243 33C243.5 33.8333 244.7 35.5 245.5 35.5C246.5 35.5 247 34 247.5 34.5C248 35 250 35.5 247.5 37C247 37.1667 245.9 37.5 245.5 37.5C245 37.5 240 37.5 239.5 37C239.1 36.6 239 35.5 239 35C239 34.6667 238.9 33.9 238.5 33.5C238 33 235 26.5 235.5 25C234.667 25.6667 232.8 26.9 232 26.5H228.5C229 28 230 31.2 230 32C230 33 232 35 232.5 34.5C233.5 34 235.4 33.3 235 34.5C234.5 36 235.5 36 231.5 36.5C227.5 37 224 35.5 224.5 35C225 34.5 225.5 34 225 34C224.5 34 220 27 220.5 26.5L220.557 26.4503C219.905 26.3527 219.5 26.2079 219.5 26C219.5 25 220.5 25 220.5 24C218.333 27 213.9 33 213.5 33C213 33 213 36.5 216 35C216.833 34.8333 218.2 35 217 37C215.333 37.1667 211.9 37.4 211.5 37C209.667 36.5 206.2 34.9 207 32.5C207 32.3333 207.2 31.9 208 31.5C208.8 31.1 209 26.6667 209 24.5C208.5 22.1667 207.8 16.8 209 14Z" fill="#7B6543"/>
<path d="M258 20C258 20.365 258.533 20.9298 259.234 21.5M259.234 21.5C260.454 22.4919 262.182 23.5 262.5 23.5C263 23.5 263 22.5 263.5 22.7522C264 23.0044 265.5 22 265 22C264.6 22 263.5 19 263 17.5L263.5 16.5C264.3 13.7 262.167 10.6667 261 9.5C262.2 9.5 262.167 8.83333 262 8.5C261.833 8.33333 261.3 7.9 260.5 7.5C259.7 7.1 258.833 7.66667 258.5 8C255.7 5.6 249.333 4 246.5 3.5C242.5 1 241.5 1 240.5 1C239.5 1 235.5 4 233.5 4.5C231.5 5 229.5 4 223 4.5C216.5 5 211.5 10 210.5 11C209.7 11.8 209.167 13.3333 209 14C207.8 16.8 208.5 22.1667 209 24.5C209 26.6667 208.8 31.1 208 31.5C207.2 31.9 207 32.3333 207 32.5C206.2 34.9 209.667 36.5 211.5 37C211.9 37.4 215.333 37.1667 217 37C218.2 35 216.833 34.8333 216 35C213 36.5 213 33 213.5 33C213.9 33 218.333 27 220.5 24M259.234 21.5C258.656 21.6667 257.4 22 257 22C256.5 22 252.5 21.5 252.5 20.5C251.5 20.6667 249.4 20.7 249 19.5L247 20L250 26C250.333 26.3333 250.6 27.6 249 30C247.4 32.4 246.667 33 246.5 33C245.833 33.3333 244.4 33.9 244 33.5C243.83 33.3299 243.714 33.2743 243.637 33.2795M243.5 33.5C243.5 33.4042 243.533 33.2864 243.637 33.2795M245 6C245.833 6.16667 247.4 7.3 247 10.5C247.333 11.1667 248 12.8 248 14C248 15.5 246 20.5 244.5 22C243.866 22.6342 243.321 24.6088 242.979 26.715M228.5 26.5H232C232.8 26.9 234.667 25.6667 235.5 25C235 26.5 238 33 238.5 33.5C238.9 33.9 239 34.6667 239 35C239 35.5 239.1 36.6 239.5 37C240 37.5 245 37.5 245.5 37.5C245.9 37.5 247 37.1667 247.5 37C250 35.5 248 35 247.5 34.5C247 34 246.5 35.5 245.5 35.5C244.7 35.5 243.5 33.8333 243 33C242.708 32.8538 242.586 31.9809 242.598 30.7813C242.61 29.6127 242.749 28.134 242.979 26.715M228.5 26.5C229 28 230 31.2 230 32C230 33 232 35 232.5 34.5C233.5 34 235.4 33.3 235 34.5C234.5 36 235.5 36 231.5 36.5C227.5 37 224 35.5 224.5 35C225 34.5 225.5 34 225 34C224.5 34 220 27 220.5 26.5L220.557 26.4503M228.5 26.5C226.279 26.6234 222.415 26.7285 220.557 26.4503M220.5 24C220.5 25 219.5 25 219.5 26C219.5 26.2079 219.905 26.3527 220.557 26.4503M220.5 24C220.5 23 223.5 13.5 223 13M256.5 9.5C256.922 9.9124 257.913 10.6898 258.5 10.5C259.087 10.3102 259.745 10.0876 260 10M257 12.5C257 13.6667 257.4 16.2 259 17M261 17H262C261.5 16 262.5 16 261.5 16M243.637 33.2795C242.947 33.103 242.925 31.353 243 30.5C243 30.5 244.1 29.4 244.5 29C244.9 28.6 243.667 27.8333 243 27.5L242.979 26.715" stroke="black" stroke-width="0.5"/>
<path d="M274.5 28.5657C274.9 28.1657 276.667 25.7324 277.5 24.5657C278 24.0657 279 22.9657 279 22.5657C279 22.0657 279.5 13.0657 283 10.5657C286.5 8.06574 286.5 6.56574 293 5.06574C295.167 4.7324 300.4 4.36574 304 5.56574C304.667 5.73241 306 5.96575 306 5.56575C306 5.06575 310.5 2.56575 312.5 3.06575C314.5 3.56575 316 4.56575 318 5.06575C320 5.56575 324 4.56575 330.5 9.56575C331.5 9.23242 333.5 8.66575 333.5 9.06575C333.5 9.56575 336 10.5658 333.5 11.5658C334.333 12.7324 335.8 15.3658 335 16.5658C335.167 16.5658 335.5 16.6658 335.5 17.0658C335.5 17.4657 334.833 18.2324 334.5 18.5658L336.5 23.0658C336.167 23.5658 335.4 24.4657 335 24.0658C334.833 24.2324 334.4 24.5658 334 24.5658C333.5 24.5658 330 23.5658 330 23.0658C329.984 23.0265 329.968 22.9853 329.952 22.9426C329.793 22.8426 329.28 23.2862 329 23.5658C327.5 22.8991 324.5 21.3657 324.5 20.5658C324.5 19.5658 323 20.5658 323.5 21.5658C324 22.5658 328 28.5658 328 29.0658C328 29.5658 328 32.0658 328.5 32.5658C329 33.0658 332 34.5658 331.5 35.5658C331.1 36.3657 330.667 36.5658 330.5 36.5658C330 36.3991 328.8 35.9658 328 35.5658C327 35.0658 324 34.0658 323 31.5658C322.833 31.0658 322.2 30.0658 321 30.0658C319.5 30.0658 314 26.5658 313.5 24.0658C312.667 24.2324 311 25.0658 311 27.0658C311 29.0658 309.667 32.8991 309 34.5658C309.167 35.2324 309.8 36.4658 311 36.0658C312.5 35.5658 314.5 35.5658 314.5 36.5658C314.5 37.5658 313.5 38.0658 313 38.0658C312.5 38.0658 306 38.5658 305 37.5658C304 36.5658 304 35.5658 304 35.0658C304 34.5658 301.5 27.5658 302 27.0658C301.991 27.0331 301.981 26.9994 301.972 26.9647C301.574 26.9195 299.463 27.4986 297.5 27.639C297.5 27.7123 297.5 33.0658 298 34.0658C298.4 34.8657 299.5 35.3991 300 35.5658C302.5 35.0658 302.5 35.5658 303 35.5658C303.5 35.5658 302 37.0658 301.5 37.5658C301 38.0658 296 37.5658 295.5 37.5658C295 37.5658 292.5 37.0658 292.5 36.5658C292.5 36.0658 293.5 35.5658 292.5 34.5658C291.5 33.5658 289 28.0658 288.5 27.5658C288.1 27.1658 288.667 26.3991 289 26.0658C286.667 27.5658 281.8 30.5658 281 30.5658C280 30.5658 278.5 35.0658 279 35.5658C279.4 35.9658 280.167 36.0658 280.5 36.0658C281.167 36.3991 282 37.1657 280 37.5658C278 37.9658 276.5 37.3991 276 37.0658C275.167 36.3991 273.6 34.7658 274 33.5658C273.333 31.8991 272.3 28.6657 273.5 29.0657C273.667 29.0657 274.1 28.9657 274.5 28.5657Z" fill="#7B6543"/>
<path d="M330 23.0658C330 23.5658 333.5 24.5658 334 24.5658C334.4 24.5658 334.833 24.2324 335 24.0658C335.4 24.4658 336.167 23.5658 336.5 23.0658L334.5 18.5658C334.833 18.2324 335.5 17.4658 335.5 17.0658C335.5 16.6658 335.167 16.5658 335 16.5658C335.8 15.3658 334.333 12.7324 333.5 11.5658C336 10.5658 333.5 9.56575 333.5 9.06575C333.5 8.66575 331.5 9.23242 330.5 9.56575C324 4.56575 320 5.56575 318 5.06575C316 4.56575 314.5 3.56575 312.5 3.06575C310.5 2.56575 306 5.06575 306 5.56575C306 5.96575 304.667 5.73241 304 5.56574C300.4 4.36574 295.167 4.7324 293 5.06574C286.5 6.56574 286.5 8.06574 283 10.5657C279.5 13.0657 279 22.0657 279 22.5657C279 22.9657 278 24.0657 277.5 24.5657C276.667 25.7324 274.9 28.1657 274.5 28.5657C274.1 28.9657 273.667 29.0657 273.5 29.0657C272.3 28.6657 273.333 31.8991 274 33.5658C273.6 34.7658 275.167 36.3991 276 37.0658C276.5 37.3991 278 37.9658 280 37.5658C282 37.1658 281.167 36.3991 280.5 36.0658C280.167 36.0658 279.4 35.9658 279 35.5658C278.5 35.0658 280 30.5658 281 30.5658C281.8 30.5658 286.667 27.5658 289 26.0658M330 23.0658C330 22.6658 329.333 23.2324 329 23.5658C327.5 22.8991 324.5 21.3658 324.5 20.5658C324.5 19.5658 323 20.5658 323.5 21.5658C324 22.5658 328 28.5658 328 29.0658C328 29.5658 328 32.0658 328.5 32.5658C329 33.0658 332 34.5658 331.5 35.5658C331.1 36.3658 330.667 36.5658 330.5 36.5658C330 36.3991 328.8 35.9658 328 35.5658C327 35.0658 324 34.0658 323 31.5658C322.833 31.0658 322.2 30.0658 321 30.0658C319.5 30.0658 314 26.5658 313.5 24.0658M330 23.0658C329.667 22.2324 329.2 20.5658 330 20.5658C330.8 20.5658 332.333 19.8991 333 19.5658M313.5 24.0658C312.667 24.2324 311 25.0658 311 27.0658C311 29.0658 309.667 32.8991 309 34.5658C309.167 35.2324 309.8 36.4658 311 36.0658C312.5 35.5658 314.5 35.5658 314.5 36.5658C314.5 37.5658 313.5 38.0658 313 38.0658C312.5 38.0658 306 38.5658 305 37.5658C304 36.5658 304 35.5658 304 35.0658C304 34.5658 301.5 27.5658 302 27.0658M313.5 24.0658C316.5 20.7324 321.4 12.8658 317 8.06575M302 27.0658C302.383 26.6831 299.837 27.4719 297.5 27.639M302 27.0658C301.667 25.8991 301.2 23.3657 302 22.5657C303 21.5658 307 19.0658 306.5 17.0658M289 26.0658C290.333 26.3991 293.5 27.1658 295.5 27.5658C296.087 27.6831 296.784 27.6903 297.5 27.639M289 26.0658C288.667 26.3991 288.1 27.1658 288.5 27.5658C289 28.0658 291.5 33.5658 292.5 34.5658C293.5 35.5658 292.5 36.0658 292.5 36.5658C292.5 37.0658 295 37.5658 295.5 37.5658C296 37.5658 301 38.0658 301.5 37.5658C302 37.0658 303.5 35.5658 303 35.5658C302.5 35.5658 302.5 35.0658 300 35.5658C299.5 35.3991 298.4 34.8658 298 34.0658C297.5 33.0658 297.5 27.7123 297.5 27.639M289 26.0658C290.833 23.3991 294.6 16.8658 295 12.0658M328.5 10.5657C328.167 11.0657 327.6 12.0658 328 12.0658C328.5 12.0658 332.5 12.5658 332.5 11.5658M328.5 15.0658C328.833 16.0658 329.7 18.0658 330.5 18.0658M332.5 18.0658C332.833 18.2324 333.5 18.5658 333.5 18.5658C333.667 18.5658 333.9 18.4658 333.5 18.0658" stroke="black" stroke-width="0.5"/>
<path d="M349.5 23C348.333 21.3333 346.2 17.9 347 17.5C346.667 16.6667 346.2 14.7 347 13.5C348 12 348.5 5.5 357 4.5C365.5 3.5 372 5 372.5 5C373 5 377.5 2 378.5 2C379.5 2 381 2 384.5 4.5C387.333 5 393.5 6.5 395.5 8.5C396.167 8.83333 397.6 9.5 398 9.5C398.5 9.5 401 8.5 401 9.5C401 10.5 400 11 399.5 11C400.167 11.1667 401.5 11.9 401.5 13.5C401.5 15.5 402 16.5 402 17C402 17.4 401.667 17.8333 401.5 18V19.5C401.667 20.6667 402.2 23.1 403 23.5C402.833 23.6667 402.4 24 402 24C401.5 24 401 24.5 400.5 24.5C400.112 24.5 397.914 23.5952 396.951 22.4883C397.155 23.1655 397.061 23.7653 396 23.5C394.4 23.1 392.667 21.6667 392 21C391.667 20.6667 391 20.3 391 21.5C391 23 394 33 393.5 33.5C393 34 395.5 36.5 396.5 36C397.3 35.6 398.833 35.8333 399.5 36C399.833 36.6667 400.2 38 399 38H392C391.333 37.8333 389.9 37.1 389.5 35.5C389.1 33.9 387 32.5 386 32C385.167 30.6667 383.4 28 383 28C382.5 28 382 28 382 27.5C382 27 381.5 22.5 381 22.5C380.5 22.5 379 22 378.5 23C378.1 23.8 376 24.3333 375 24.5C374.833 24.5 374.4 24.7 374 25.5C373.6 26.3 371.833 31.5 371 34C371 34.6667 371.3 35.9 372.5 35.5C374 35 376 35.5 376 36C376 36.5 375 38 374 38C373 38 366.5 38.5 366.5 37.5C366 36.5 366.5 37 366.5 36.5C366.5 36 365.5 34.5 365.5 33.5C365.5 32.5 364.5 29.5 365 29.5C365.25 29.5 365.25 29 365.125 28.5C365 28 364.75 27.5 364.5 27.5C364.1 27.5 361 26.8333 359.5 26.5C359.333 26.8333 359 27.8 359 29C359 30.5 357.5 32.5 358 33.5C358.5 34.5 358.5 35.5 359.5 35.5C360.5 35.5 363 35 363 35.5C363 36 364 37 363 37C362.2 37 360.333 37.6667 359.5 38L351.5 36.5C351.333 36 351.1 35 351.5 35C351.74 35 351.865 34.8845 351.819 34.7645C351.769 34.6349 351.519 34.5 351 34.5C350.2 34.5 348.333 33.5 347.5 33C346.5 31.8333 344.5 29.4 344.5 29C344.5 28.5 349 23 349.5 23Z" fill="#7B6543"/>
<path d="M375 24.5C376 24.3333 378.1 23.8 378.5 23C379 22 380.5 22.5 381 22.5C381.5 22.5 382 27 382 27.5C382 28 382.5 28 383 28C383.4 28 385.167 30.6667 386 32C387 32.5 389.1 33.9 389.5 35.5C389.9 37.1 391.333 37.8333 392 38C393.833 38 397.8 38 399 38C400.2 38 399.833 36.6667 399.5 36C398.833 35.8333 397.3 35.6 396.5 36C395.5 36.5 393 34 393.5 33.5C394 33 391 23 391 21.5C391 20.3 391.667 20.6667 392 21C392.667 21.6667 394.4 23.1 396 23.5C397.6 23.9 397 22.3333 396.5 21.5C396.5 23 400 24.5 400.5 24.5C401 24.5 401.5 24 402 24C402.4 24 402.833 23.6667 403 23.5C402.2 23.1 401.667 20.6667 401.5 19.5V18C401.667 17.8333 402 17.4 402 17C402 16.5 401.5 15.5 401.5 13.5C401.5 11.9 400.167 11.1667 399.5 11C400 11 401 10.5 401 9.5C401 8.5 398.5 9.5 398 9.5C397.6 9.5 396.167 8.83333 395.5 8.5C393.5 6.5 387.333 5 384.5 4.5C381 2 379.5 2 378.5 2C377.5 2 373 5 372.5 5C372 5 365.5 3.5 357 4.5C348.5 5.5 348 12 347 13.5C346.2 14.7 346.667 16.6667 347 17.5C346.2 17.9 348.333 21.3333 349.5 23C349 23 344.5 28.5 344.5 29C344.5 29.4 346.5 31.8333 347.5 33C348.333 33.5 350.2 34.5 351 34.5C351.519 34.5 351.769 34.6349 351.819 34.7645M375 24.5C374.833 24.5 374.4 24.7 374 25.5C373.6 26.3 371.833 31.5 371 34C371 34.6667 371.3 35.9 372.5 35.5C374 35 376 35.5 376 36C376 36.5 375 38 374 38C373 38 366.5 38.5 366.5 37.5C366 36.5 366.5 37 366.5 36.5C366.5 36 365.5 34.5 365.5 33.5C365.5 32.5 364.5 29.5 365 29.5C365.25 29.5 365.25 29 365.125 28.5M375 24.5C378.167 21.6667 384.1 15.7 382.5 14.5M351.819 34.7645C351.865 34.8845 351.74 35 351.5 35C351.1 35 351.333 36 351.5 36.5L359.5 38C360.333 37.6667 362.2 37 363 37C364 37 363 36 363 35.5C363 35 360.5 35.5 359.5 35.5C358.5 35.5 358.5 34.5 358 33.5C357.5 32.5 359 30.5 359 29C359 27.8 359.333 26.8333 359.5 26.5C361 26.8333 364.1 27.5 364.5 27.5C364.75 27.5 365 28 365.125 28.5M351.819 34.7645C355.164 33.7529 357 32.5 357.5 32C357.333 31.6667 356.6 31.1 355 31.5C353.4 31.9 354 31.6667 354.5 31.5C354.333 31 353.9 30 353.5 30C353.1 30 351 29.6667 350 29.5C351.5 29.5 354.7 29.3 355.5 28.5C356.5 27.5 364 22 363 21.5C363.167 19.1667 363.3 14.4 362.5 14C361.7 13.6 361.833 11.1667 362 10M365.125 28.5C364.917 26.1667 364.6 21.5 365 21.5C365.5 21.5 368.5 18.5 368.5 18C368.5 17.5 371 12.5 370 12M392 16.5C392.333 14.8333 393.2 11.5 394 11.5M396.5 13C396.5 14 396.7 16.1 397.5 16.5C397.833 17 398.6 18 399 18M396.5 21C397.5 20.6667 399.5 19.9 399.5 19.5M400 17.5L400.5 18C400.333 18.3333 400 18.9 400 18.5" stroke="black" stroke-width="0.5"/>
<path d="M411.5 13.2755C412.667 10.4422 416.5 4.67551 422.5 4.27551C430 3.77551 436 4.77551 437 4.77551C438 4.77551 441 1.27551 442 1.27551C443 1.27551 446 -0.22449 451.5 3.77551C452.167 4.10884 454 4.77551 456 4.77551C458 4.77551 462.167 7.44218 464 8.77551L466 7.77551C466.833 7.77551 468.1 8.37551 466.5 10.7755C467.333 12.1088 468.9 14.9755 468.5 15.7755C468 16.7755 467.5 17.2755 467.5 17.7755C467.5 18.2755 469 22.7755 469.5 22.7755C470 22.7755 469 23.7755 468 23.7755C467.2 23.7755 467 24.1088 467 24.2755C465.667 23.9422 463 23.1755 463 22.7755C463 22.3755 461.333 22.6088 460.5 22.7755C460.333 22.7755 460 22.6755 460 22.2755C460 21.8755 457.667 21.1088 456.5 20.7755C456 20.9422 455 21.3755 455 21.7755C455 22.2755 454.5 20.7755 454 20.7755C453.5 20.7755 452.5 20.7755 453 21.7755C453.4 22.5755 453.833 30.4422 454 34.2755C454.333 34.9422 455.3 36.2755 456.5 36.2755C458 36.2755 459 34.7755 459.5 35.7755C460 36.7755 460 37.7755 459.5 37.7755C459 37.7755 452 38.2755 451.5 37.7755C451 37.2755 450 35.2755 450 34.7755C450 34.3755 448.333 32.2755 447.5 31.2755C446.333 30.2755 444 27.8755 444 26.2755C444 25.588 443.941 25.3732 443.843 25.4279C443.656 25.5324 443.328 26.6193 443 27.2755C442.5 28.2755 441 32.2755 440 32.2755C439 32.2755 438 32.7755 437.5 33.2755C437.1 33.6755 436.667 35.1088 436.5 35.7755C436 36.2755 434.7 37.1755 433.5 36.7755C432.3 36.3755 433.667 32.6088 434.5 30.7755C435.167 30.7755 436.5 29.7755 436.5 25.7755C436 26.2755 434.8 27.2755 434 27.2755H429C428.5 28.4422 427.7 30.7755 428.5 30.7755C429.5 30.7755 428.5 31.7755 432 30.7755C435.5 29.7755 431.5 34.7755 431 34.7755C430.5 34.7755 423 36.2755 421 33.7755C420.833 33.2755 420.6 32.1755 421 31.7755C421.099 31.6763 421.057 31.3084 420.922 30.7755C420.281 31.6088 419 33.4755 419 34.2755C419 35.2755 420.5 36.2755 421.5 35.7755C422.5 35.2755 423.5 35.7755 424 36.2755C424.4 36.6755 423.167 37.4422 422.5 37.7755C421 38.1088 417.5 38.4755 415.5 37.2755C413 35.7755 413 35.2755 412.5 34.7755C412 34.2755 412.5 33.2755 413 32.2755C413.4 31.4755 413.167 26.6088 413 24.2755C410.2 19.0755 410.833 14.7755 411.5 13.2755Z" fill="#7B6543"/>
<path d="M411.5 13.2755C412.667 10.4422 416.5 4.67551 422.5 4.27551C430 3.77551 436 4.77551 437 4.77551C438 4.77551 441 1.27551 442 1.27551C443 1.27551 446 -0.22449 451.5 3.77551C452.167 4.10884 454 4.77551 456 4.77551C458 4.77551 462.167 7.44218 464 8.77551L466 7.77551C466.833 7.77551 468.1 8.37551 466.5 10.7755C467.333 12.1088 468.9 14.9755 468.5 15.7755C468 16.7755 467.5 17.2755 467.5 17.7755C467.5 18.2755 469 22.7755 469.5 22.7755C470 22.7755 469 23.7755 468 23.7755C467.2 23.7755 467 24.1088 467 24.2755C465.667 23.9422 463 23.1755 463 22.7755C463 22.3755 461.333 22.6088 460.5 22.7755C460.333 22.7755 460 22.6755 460 22.2755C460 21.8755 457.667 21.1088 456.5 20.7755C456 20.9422 455 21.3755 455 21.7755C455 22.2755 454.5 20.7755 454 20.7755C453.5 20.7755 452.5 20.7755 453 21.7755C453.4 22.5755 453.833 30.4422 454 34.2755C454.333 34.9422 455.3 36.2755 456.5 36.2755C458 36.2755 459 34.7755 459.5 35.7755C460 36.7755 460 37.7755 459.5 37.7755C459 37.7755 452 38.2755 451.5 37.7755C451 37.2755 450 35.2755 450 34.7755C450 34.3755 448.333 32.2755 447.5 31.2755C446.333 30.2755 444 27.8755 444 26.2755C444 25.588 443.941 25.3732 443.843 25.4279M411.5 13.2755C410.7 18.0755 415.833 22.6088 418.5 24.2755C419.252 26.03 420.513 29.1604 420.922 30.7755M411.5 13.2755C410.833 14.7755 410.2 19.0755 413 24.2755C413.167 26.6088 413.4 31.4755 413 32.2755C412.5 33.2755 412 34.2755 412.5 34.7755C413 35.2755 413 35.7755 415.5 37.2755C417.5 38.4755 421 38.1088 422.5 37.7755C423.167 37.4422 424.4 36.6755 424 36.2755C423.5 35.7755 422.5 35.2755 421.5 35.7755C420.5 36.2755 419 35.2755 419 34.2755C419 33.4755 420.281 31.6088 420.922 30.7755M436.5 25.7755C436.5 29.7755 435.167 30.7755 434.5 30.7755C433.667 32.6088 432.3 36.3755 433.5 36.7755C434.7 37.1755 436 36.2755 436.5 35.7755C436.667 35.1088 437.1 33.6755 437.5 33.2755C438 32.7755 439 32.2755 440 32.2755C441 32.2755 442.5 28.2755 443 27.2755C443.328 26.6193 443.656 25.5324 443.843 25.4279M436.5 25.7755C436.5 21.7755 436.5 19.7755 436.5 19.2755C436.333 18.6088 436.5 16.7755 438.5 14.7755C440.5 12.7755 440 12.9422 439.5 13.2755M436.5 25.7755C436 26.2755 434.8 27.2755 434 27.2755C433.2 27.2755 430.333 27.2755 429 27.2755M429 27.2755C429.833 24.4422 431.2 18.5755 430 17.7755C428.5 16.2755 425.5 12.7755 425.5 10.7755M429 27.2755C428.5 28.4422 427.7 30.7755 428.5 30.7755C429.5 30.7755 428.5 31.7755 432 30.7755C435.5 29.7755 431.5 34.7755 431 34.7755C430.5 34.7755 423 36.2755 421 33.7755C420.833 33.2755 420.6 32.1755 421 31.7755C421.099 31.6763 421.057 31.3084 420.922 30.7755M443.843 25.4279C443.895 24.5438 444.2 22.6755 445 22.2755C446 21.7755 450 20.2755 450.5 18.2755C451 16.2755 453 9.77551 450 7.27551M464 10.7755L465 10.2755M462 12.7755C462.333 14.1088 463.2 16.7755 464 16.7755M465 17.2755L466 17.7755C466.333 17.4422 466.9 16.7755 466.5 16.7755M463 21.2755C463.167 20.6088 463.8 19.1755 465 18.7755C466.2 18.3755 467.167 18.2755 467.5 18.2755" stroke="black" stroke-width="0.5"/>
<path d="M482 12.5C483.5 9.66667 488.6 4.10001 497 4.50001C507.5 5.00001 505 5 506 5C507 5 510.5 1 514 1C517.5 1 519.5 3.5 520 3.5C520.5 3.5 528 5 531.5 8C532 7.66667 533.2 7.1 534 7.5C534.8 7.9 535.333 8.66667 535.5 9C535.5 9.33333 535.3 10 534.5 10C535.667 11.3333 537.7 14.6 536.5 17C536.339 17.8037 536.489 19.9405 538.293 22.2444C538.362 22.663 538.1 23.5 536.5 23.5C535.133 23.5 533.532 23.2663 532.496 22C531.949 22.2519 530.685 22.7044 530 22.5C529.144 22.2444 526.5 21 526 21C525.5 21 524 20.5 524 21C524 21.5 521.5 21 521 21C520.5 21 519 20 519.5 21C520 22 523.5 26 523.5 26.5C523.5 27 524 26.5 521.5 31.5C521.333 32.3333 520.9 34 520.5 34C520 34 517.5 36.5 517 33.5C516.562 30.8706 516.124 30.9299 516.022 30.648C516.007 31.5987 515.982 33.5 516 33.5C516.022 33.5 516 35.5 517 35.5C517.333 35.6667 518.1 36 518.5 36C519 36 520 35 522 35.5C524 36 521 37.5 519.5 37.5C518 37.5 512.5 38 512.5 37.5C512.167 37.1667 511.5 36.3 511.5 35.5C511.5 34.5 511.5 33 511 33C510.6 33 509.167 29 508.5 27C508.333 26.8333 507.9 26.5 507.5 26.5C507 26.5 502 28 502 27.5C501.833 28.8333 501.6 31.6 502 32C502.5 32.5 502.5 33.5 503 34C503.5 34.5 505 35.5 505.5 35.5C506 35.5 508 35 508 35.5C508 36 508 37.5 507 37.5C506 37.5 501 38.5 498 37.5C497.667 37.3333 497 36.8 497 36C497 35 498 34.5 495.5 32.5C494.292 30.8388 491.907 27.508 491.172 26.3021C491.557 27.2378 485.99 33.0197 485.5 34C485.1 34.8 486.333 35.6667 487 36C487.333 35.8333 488.2 35.6 489 36C489.8 36.4 489 37.1667 488.5 37.5H483.5C480 37.5 479.5 33.5 479.5 32.5C479.5 31.5 480.5 31.5 480.5 30.5V28C480.667 27.8333 481 27.2 481 26L481 23.5C480.6 18.7 480.833 16.5 481 16C481 14.4 481.667 13 482 12.5Z" fill="#7B6543"/>
<path d="M482 12.5C483.5 9.66667 488.6 4.10001 497 4.50001C507.5 5.00001 505 5 506 5C507 5 510.5 1 514 1C517.5 1 519.5 3.5 520 3.5C520.5 3.5 528 5 531.5 8C532 7.66667 533.2 7.1 534 7.5C534.8 7.9 535.333 8.66667 535.5 9C535.5 9.33333 535.3 10 534.5 10M482 12.5C481.667 13.5 481.6 15.7 484 16.5M482 12.5C481.667 13 481 14.4 481 16C480.833 16.5 480.6 18.7 481 23.5C481 23.8333 481 24.8 481 26C481 27.2 480.667 27.8333 480.5 28C480.5 28.5 480.5 29.7 480.5 30.5C480.5 31.5 479.5 31.5 479.5 32.5C479.5 33.5 480 37.5 483.5 37.5C486.3 37.5 488 37.5 488.5 37.5C489 37.1667 489.8 36.4 489 36C488.2 35.6 487.333 35.8333 487 36C486.333 35.6667 485.1 34.8 485.5 34C486 33 491.783 27.0033 491.142 26.2517M534.5 10C533.7 10 532.167 10.6667 531.5 11M534.5 10C535.667 11.3333 537.7 14.6 536.5 17C536.339 17.8037 536.489 19.9405 538.293 22.2444M538.5 22.5C538.429 22.4146 538.36 22.3294 538.293 22.2444M538.293 22.2444C538.362 22.663 538.1 23.5 536.5 23.5C535.133 23.5 533.532 23.2663 532.496 22M532.496 22C532.016 21.4141 531.658 20.6071 531.5 19.5C532.833 19.3333 535.5 18.8 535.5 18M532.496 22C531.949 22.2519 530.685 22.7044 530 22.5C529.144 22.2444 526.5 21 526 21C525.5 21 524 20.5 524 21C524 21.5 521.5 21 521 21C520.5 21 519 20 519.5 21M519.5 21C520 22 523.5 26 523.5 26.5C523.5 27 524 26.5 521.5 31.5C521.333 32.3333 520.9 34 520.5 34C520 34 517.5 36.5 517 33.5C516.562 30.8706 516.124 30.9299 516.022 30.648M519.5 21C519.333 20.8333 519 20.4 519 20C519 19.5 521 16.5 521 15.5C521 14.5 522.5 9.5 520 7.5M509 13.5C509.167 14.3333 509.6 16.2 510 17C510.5 18 507.5 22.5 507.5 23C507.5 23.5 512.5 27.5 514.5 28C516.1 28.4 516.5 29.1667 516.5 29.5C516.333 29.6667 516 30.1 516 30.5C516 30.5618 516.008 30.6083 516.022 30.648M516.022 30.648C516.007 31.5987 515.982 33.5 516 33.5C516.022 33.5 516 35.5 517 35.5C517.333 35.6667 518.1 36 518.5 36C519 36 520 35 522 35.5C524 36 521 37.5 519.5 37.5C518 37.5 512.5 38 512.5 37.5C512.167 37.1667 511.5 36.3 511.5 35.5C511.5 34.5 511.5 33 511 33C510.6 33 509.167 29 508.5 27C508.333 26.8333 507.9 26.5 507.5 26.5C507 26.5 502 28 502 27.5M502 27.5C502 27 502 22 501.5 21C501.1 20.2 499 15 498 12.5M502 27.5C501.833 28.8333 501.6 31.6 502 32C502.5 32.5 502.5 33.5 503 34C503.5 34.5 505 35.5 505.5 35.5C506 35.5 508 35 508 35.5C508 36 508 37.5 507 37.5C506 37.5 501 38.5 498 37.5C497.667 37.3333 497 36.8 497 36C497 35 498 34.5 495.5 32.5C494.275 30.815 491.838 27.4123 491.142 26.2517M484 16.5C484.5 21.5 490.5 25 491 26C491.032 26.0647 491.08 26.1495 491.142 26.2517M484 16.5C484 15.3333 484.2 12.9 485 12.5M529.5 9.5C529 10 528.5 11.1 530.5 11.5C530.167 13 530.1 16.2 532.5 17M533.5 17.5L535 17C535 16.8333 534.9 16.5 534.5 16.5" stroke="black" stroke-width="0.5"/>
<path d="M1077 12.3558C1075.67 10.0224 1072.5 5.85576 1068 4.85576C1063.09 3.7657 1057.5 3.85576 1054 4.85576C1053.33 4.85576 1051.8 4.65576 1051 3.85576C1050 2.85576 1046.5 0.855754 1042.5 2.85576L1039.5 4.35576C1038 4.02243 1034.1 4.05576 1030.5 6.85576C1029.67 7.52243 1027.9 8.85576 1027.5 8.85576C1027 8.85576 1023.5 7.85576 1023.5 9.35576C1023.5 10.5558 1023.83 10.8558 1024 10.8558C1022.83 13.3558 1021.1 18.3558 1023.5 18.3558C1022.5 20.0224 1020.6 23.3558 1021 23.3558C1021.5 23.3558 1021.5 24.8558 1025 24.3558C1025.67 24.0224 1027.1 23.2558 1027.5 22.8558C1028 22.3558 1031.5 23.8558 1033 20.3558C1034 20.1891 1035.8 20.1558 1035 21.3558L1030 28.8558C1029.83 29.0224 1029.5 29.6558 1029.5 30.8558C1029.5 32.3115 1028.56 33.2963 1027.59 32.8961C1027.06 32.8827 1026.1 33.0558 1026.5 33.8558C1027 34.8558 1025 34.8558 1026 35.3558C1027 35.8558 1030 36.3558 1030.5 35.8558C1031 35.3558 1034 34.8558 1035 31.8558C1036 28.8558 1042 28.8558 1042.5 26.8558C1042.93 25.1275 1044.11 24.5193 1045.71 24.386L1048 30.3558C1048.5 31.6891 1049.4 34.4558 1049 34.8558C1048.5 35.3558 1048 36.3558 1047 35.8558C1046 35.3558 1043.5 35.8558 1043.5 36.3558C1043.5 36.8558 1046.5 38.3558 1047 38.3558C1047.5 38.3558 1052.5 37.8558 1053 37.3558C1053.5 36.8558 1054 34.8558 1053.5 34.8558C1053 34.8558 1056 31.3558 1056 29.8558C1056 28.3558 1055.26 27.3558 1056 27.3558L1056.5 27.2992C1058.18 27.7019 1059.52 27.8348 1060 27.3558L1060.83 27.8558C1061.22 29.4979 1060.86 33.4954 1060.5 33.8558C1060 34.3558 1059.5 36.3558 1057.5 35.3558C1055.5 34.3558 1055 37.3558 1056 37.3558C1057 37.3558 1062 38.3558 1063 37.8558C1064 37.3558 1066.5 37.8558 1066 34.8558C1065.6 32.4558 1068.83 28.8558 1070.5 27.3558L1071 25.8558C1071.47 26.5224 1072.83 27.9558 1074.5 28.3558C1076.59 28.8558 1079.5 29.8558 1079.5 30.8558C1079.5 31.8558 1081.5 35.8558 1080 35.8558C1078.5 35.8558 1078 35.3558 1078 36.3558C1078 37.3558 1079 38.3558 1080 37.8558C1081 37.3558 1085.5 36.3558 1086 29.3558C1085.83 29.0224 1085.4 28.4558 1085 28.8558C1083.5 27.1891 1080.4 23.4558 1080 21.8558C1079.52 19.9416 1078.13 13.4477 1077.13 12.4552C1077.09 12.4145 1077.05 12.3811 1077 12.3558Z" fill="#7B6543"/>
<path d="M1077 12.3558C1075.67 10.0224 1072.5 5.85576 1068 4.85576C1063.09 3.7657 1057.5 3.85576 1054 4.85576C1053.33 4.85576 1051.8 4.65576 1051 3.85576C1050 2.85576 1046.5 0.855754 1042.5 2.85576L1039.5 4.35576C1038 4.02243 1034.1 4.05576 1030.5 6.85576C1029.67 7.52243 1027.9 8.85576 1027.5 8.85576C1027 8.85576 1023.5 7.85576 1023.5 9.35576C1023.5 10.5558 1023.83 10.8558 1024 10.8558C1022.83 13.3558 1021.1 18.3558 1023.5 18.3558C1022.5 20.0224 1020.6 23.3558 1021 23.3558C1021.5 23.3558 1021.5 24.8558 1025 24.3558C1025.67 24.0224 1027.1 23.2558 1027.5 22.8558C1028 22.3558 1031.5 23.8558 1033 20.3558C1034 20.1891 1035.8 20.1558 1035 21.3558C1034.2 22.5558 1031.33 26.8558 1030 28.8558C1029.83 29.0224 1029.5 29.6558 1029.5 30.8558C1029.5 32.3115 1028.56 33.2963 1027.59 32.8961M1077 12.3558C1077.8 12.7558 1076.86 15.1891 1076.29 16.3558M1077 12.3558C1078 12.8558 1079.5 19.8558 1080 21.8558C1080.4 23.4558 1083.5 27.1891 1085 28.8558C1085.4 28.4558 1085.83 29.0224 1086 29.3558C1085.5 36.3558 1081 37.3558 1080 37.8558C1079 38.3558 1078 37.3558 1078 36.3558C1078 35.3558 1078.5 35.8558 1080 35.8558C1081.5 35.8558 1079.5 31.8558 1079.5 30.8558C1079.5 29.8558 1076.59 28.8558 1074.5 28.3558C1072.83 27.9558 1071.47 26.5224 1071 25.8558M1027.5 32.8558C1027.53 32.8705 1027.56 32.884 1027.59 32.8961M1027.59 32.8961C1027.06 32.8827 1026.1 33.0558 1026.5 33.8558C1027 34.8558 1025 34.8558 1026 35.3558C1027 35.8558 1030 36.3558 1030.5 35.8558C1031 35.3558 1034 34.8558 1035 31.8558C1036 28.8558 1042 28.8558 1042.5 26.8558C1042.93 25.1275 1044.11 24.5193 1045.71 24.386M1060 27.3558L1060.83 27.8558M1060 27.3558C1060.2 27.1548 1060.37 27.1154 1060.5 27.199M1060 27.3558C1059.52 27.8348 1058.18 27.7019 1056.5 27.2992M1071 25.8558L1070.5 27.3558C1068.83 28.8558 1065.6 32.4558 1066 34.8558C1066.5 37.8558 1064 37.3558 1063 37.8558C1062 38.3558 1057 37.3558 1056 37.3558C1055 37.3558 1055.5 34.3558 1057.5 35.3558C1059.5 36.3558 1060 34.3558 1060.5 33.8558C1060.86 33.4954 1061.22 29.4979 1060.83 27.8558M1071 25.8558C1072.54 24.3558 1075.69 20.3558 1076 16.3558M1060.83 27.8558C1060.75 27.5249 1060.65 27.2897 1060.5 27.199M1060.5 27.199C1060.1 24.1244 1060.33 23.0224 1060.5 22.8558C1061.33 19.3558 1062.9 12.1558 1062.5 11.3558M1035.5 20.8558C1035.67 17.3558 1036.7 9.85576 1039.5 7.85576M1045.71 24.386C1045.97 24.365 1046.23 24.3558 1046.5 24.3558C1047.86 24.3558 1052.93 26.4407 1056.5 27.2992M1045.71 24.386L1048 30.3558C1048.5 31.6891 1049.4 34.4558 1049 34.8558C1048.5 35.3558 1048 36.3558 1047 35.8558C1046 35.3558 1043.5 35.8558 1043.5 36.3558C1043.5 36.8558 1046.5 38.3558 1047 38.3558C1047.5 38.3558 1052.5 37.8558 1053 37.3558C1053.5 36.8558 1054 34.8558 1053.5 34.8558C1053 34.8558 1056 31.3558 1056 29.8558C1056 28.3558 1055.26 27.3558 1056 27.3558L1056.5 27.2992M1029 9.85576C1029.33 10.3558 1029.7 11.3558 1028.5 11.3558C1027.3 11.3558 1026 10.6891 1025.5 10.3558M1026 17.8558C1025.67 18.1891 1025 18.7558 1025 18.3558C1025.5 17.8558 1026 16.8558 1026 17.3558M1028 22.3558C1028.17 21.3558 1028.2 19.4558 1027 19.8558C1025.5 20.3558 1024 18.8558 1024 18.8558" stroke="black" stroke-width="0.5"/>
<path d="M1009.5 11.0654C1008.5 10.0654 1007 7.06539 1002 5.56539C998 4.36539 991.333 5.73205 988.5 6.56539C987.833 6.73205 986.3 6.86538 985.5 6.06538C984.5 5.06538 982 2.56538 979 3.06538C976 3.56538 975.5 6.06538 970 6.06538C969.833 6.06539 969.4 6.16539 969 6.56539C968.5 7.06538 964 9.56538 962.5 10.0654C962.321 10.1251 962.154 10.1707 962 10.2045C961.121 10.3972 960.642 10.2072 960.5 10.0654C959.833 9.89872 958.5 9.86538 958.5 11.0654C958.5 12.2654 958.833 12.2321 959 12.0654C958.333 13.5654 957.2 16.7654 958 17.5654C958.167 17.8987 958.5 18.6654 958.5 19.0654C958.5 19.4654 957.833 21.8987 957.5 23.0654C957 23.3987 956.1 24.0654 956.5 24.0654C956.833 24.5654 957.7 25.4654 958.5 25.0654C959.167 25.0654 960.6 24.9654 961 24.5654C961.833 24.0654 963.5 22.9654 963.5 22.5654C963.667 23.0654 964.1 23.9654 964.5 23.5654L967.5 21.5654C967.833 21.5654 968.5 21.7654 968.5 22.5654C968.5 23.5654 966 30.5654 966 31.0654C966 31.5654 966.5 32.5654 966 33.5654C965.5 34.5654 964 36.5654 963.5 36.5654C963.1 36.5654 962.667 36.2321 962.5 36.0654C962 35.8987 960.9 35.7654 960.5 36.5654C960.1 37.3654 960.667 37.8987 961 38.0654H968C968.5 38.0654 969.5 36.5654 969.5 36.0654C969.5 35.6654 975.167 29.5654 978 26.5654C978.167 25.8987 978.4 24.4654 978 24.0654C978.667 24.232 980.2 24.4654 981 24.0654C981.392 23.8693 982.553 24.2882 984 24.87C985 26.2684 987.2 29.6654 988 32.0654C989 35.0654 987 35.5654 986 35.5654H983.5C982.5 35.5654 984 37.5654 984.5 37.5654H990C991 37.5654 992 36.5654 993 34.2833C993.8 32.4576 993.667 28.8049 993.5 27.2068C994.54 27.3043 995.67 27.3681 999 27.0654C999.667 28.8987 1001 32.8654 1001 34.0654C1001 35.5654 1000 36.0654 999.5 36.0654C999 36.0654 997 35.0654 997 36.0654C997 37.0654 998.5 38.0654 998 37.5654C1000.5 38.2321 1005.7 38.9654 1006.5 36.5654C1006.6 35.9503 1006.73 34.9569 1006.72 34.2833C1010.9 34.4576 1012.98 30.8773 1013.5 29.0654C1013.9 28.6654 1011.1 25.232 1009.66 23.5654C1010.94 21.0331 1012.7 16.8191 1012 15.0654C1011.5 14.0654 1010.3 11.8654 1009.5 11.0654Z" fill="#7B6543"/>
<path d="M963.5 22.5654C963.5 22.9654 961.833 24.0654 961 24.5654C960.6 24.9654 959.167 25.0654 958.5 25.0654C957.7 25.4654 956.833 24.5654 956.5 24.0654C956.1 24.0654 957 23.3987 957.5 23.0654C957.833 21.8987 958.5 19.4654 958.5 19.0654C958.5 18.6654 958.167 17.8987 958 17.5654C957.2 16.7654 958.333 13.5654 959 12.0654C958.833 12.2321 958.5 12.2654 958.5 11.0654C958.5 9.86538 959.833 9.89872 960.5 10.0654C960.642 10.2072 961.121 10.3972 962 10.2045M963.5 22.5654C963.667 23.0654 964.1 23.9654 964.5 23.5654L967.5 21.5654C967.833 21.5654 968.5 21.7654 968.5 22.5654M963.5 22.5654C963.333 22.5654 963 22.4654 963 22.0654C963 21.5654 963 21.0654 962 21.0654C961.2 21.0654 959.667 20.7321 959 20.5654M968.5 22.5654C968.5 23.5654 966 30.5654 966 31.0654C966 31.5654 966.5 32.5654 966 33.5654C965.5 34.5654 964 36.5654 963.5 36.5654C963.1 36.5654 962.667 36.2321 962.5 36.0654C962 35.8987 960.9 35.7654 960.5 36.5654C960.1 37.3654 960.667 37.8987 961 38.0654C963.167 38.0654 967.6 38.0654 968 38.0654C968.5 38.0654 969.5 36.5654 969.5 36.0654C969.5 35.6654 975.167 29.5654 978 26.5654C978.167 25.8987 978.4 24.4654 978 24.0654M968.5 22.5654C969 21.7321 970 19.9654 970 19.5654C970 19.0654 971 17.5654 971 16.0654C971 14.5654 971.5 8.56538 973.5 8.06538M978 24.0654C977.833 23.3987 978.2 21.5654 981 19.5654M978 24.0654C978.667 24.2321 980.2 24.4654 981 24.0654C981.392 23.8693 982.553 24.2882 984 24.87M999 27.0654C998.167 25.7321 996.7 21.0654 997.5 13.0654M999 27.0654C999.667 28.8987 1001 32.8654 1001 34.0654C1001 35.5654 1000 36.0654 999.5 36.0654C999 36.0654 997 35.0654 997 36.0654C997 37.0654 998.5 38.0654 998 37.5654C1000.5 38.2321 1005.7 38.9654 1006.5 36.5654C1006.6 35.9503 1006.73 34.9569 1006.72 34.2833M999 27.0654C995.67 27.3681 994.54 27.3043 993.5 27.2068M1009.66 23.5654C1009.11 24.643 1008.65 25.4161 1008.5 25.5654C1008 26.0654 1006 33.5654 1006.5 33.5654C1006.65 33.5654 1006.71 33.8617 1006.72 34.2833M1009.66 23.5654C1010.94 21.0331 1012.7 16.8191 1012 15.0654C1011.5 14.0654 1010.3 11.8654 1009.5 11.0654C1008.5 10.0654 1007 7.06539 1002 5.56539C998 4.36539 991.333 5.73205 988.5 6.56539C987.833 6.73205 986.3 6.86538 985.5 6.06538C984.5 5.06538 982 2.56538 979 3.06538C976 3.56538 975.5 6.06538 970 6.06538C969.833 6.06539 969.4 6.16539 969 6.56539C968.5 7.06538 964 9.56538 962.5 10.0654C962.321 10.1251 962.154 10.1707 962 10.2045M1009.66 23.5654C1011.1 25.2321 1013.9 28.6654 1013.5 29.0654C1012.98 30.8773 1010.9 34.4576 1006.72 34.2833M993.5 27.2068C992.823 27.1432 992.184 27.0654 991 27.0654C989.176 27.0654 986.244 25.7719 984 24.87M993.5 27.2068C993.667 28.8049 993.8 32.4576 993 34.2833C992 36.5654 991 37.5654 990 37.5654C989 37.5654 985 37.5654 984.5 37.5654C984 37.5654 982.5 35.5654 983.5 35.5654C984.5 35.5654 985 35.5654 986 35.5654C987 35.5654 989 35.0654 988 32.0654C987.2 29.6654 985 26.2684 984 24.87M962 10.2045C962.833 10.8248 964.3 12.1654 963.5 12.5654M963.5 14.0654C963.667 15.3987 963.7 18.1654 962.5 18.5654M961 19.0654C960.667 19.3987 960 19.9654 960 19.5654C960 19.0654 959.5 18.5654 960 18.5654" stroke="black" stroke-width="0.5"/>
<path d="M944.5 18.5558C944.667 16.7224 944.6 12.7558 943 11.5558C941.5 9.38909 937.2 4.95576 932 4.55576C925.5 4.05576 920 6.55576 919 5.55576C918 4.55576 914.5 1.55577 912.5 2.05577C910.5 2.55577 909 3.05577 906 4.55577C903 6.05577 901 4.05577 895 9.05577L894.5 9.55577C894 9.3891 892.9 9.05577 892.5 9.05577C892 9.05577 890.5 10.0558 891.5 11.0558C892.3 11.8558 891.833 12.0558 891.5 12.0558C890.667 13.0558 889.3 15.6558 890.5 18.0558L891 19.0558C890.667 19.8891 890 21.6558 890 22.0558C890 22.5558 888.5 23.5558 889 23.5558L890 24.0558H890.5C890.5 24.2224 890.7 24.5558 891.5 24.5558C892.5 24.5558 895 23.5558 895 23.0558C895 22.6558 896.333 22.8891 897 23.0558C897.833 22.8891 899.5 22.4558 899.5 22.0558C899.5 21.5558 898.5 21.0558 899.5 21.0558C900.5 21.0558 901 21.5558 901.5 21.5558C902 21.5558 904 22.5558 904.5 22.0558C904.525 22.0312 904.544 22.032 904.56 22.0558C904.856 22.515 903.5 31.5312 903.5 31.0558C903.5 30.5558 903 33.0558 903.5 33.5558C903.9 33.9558 902 35.3891 901 36.0558C900.167 35.7224 898.5 35.2558 898.5 36.0558C898.5 37.0558 898.5 37.5558 899.5 37.5558C900.5 37.5558 906 38.0558 906 37.5558C906.333 37.3891 907 36.9558 907 36.5558C907 36.0558 906.5 35.0558 907 35.0558C907.5 35.0558 913.5 27.0558 913.5 26.5558C913.5 26.4477 913.547 26.3396 913.62 26.2315L913.759 26.2951C913.967 28.0866 916.34 30.882 917.5 32.0558C918.5 32.5558 920.5 33.6558 920.5 34.0558C920.5 34.5558 922 36.5558 922.5 36.5558C923 36.5558 923 36.0558 922.5 35.5558C922 35.0558 922.5 35.0558 923 34.0558C923.5 33.0558 922.5 32.5558 922.5 32.0558C922.5 31.5558 920 30.0558 920.5 29.5558C920.9 29.1558 920.15 27.2153 919.725 26.2951C921.164 26.5818 922.318 26.7377 922.5 26.5558C924.055 26.6335 926.336 26.704 928.326 26.6759C928.775 27.0418 929.539 28.03 929 29.0558C928.326 30.338 927 32.0558 925.5 31.5558C924 31.0558 924 33.5558 925 34.0558C926 34.5558 928 35.0558 929.5 35.0558C931 35.0558 935.5 33.5558 935.5 33.0558C935.5 32.5558 934.5 32.0558 935 31.5558C935.4 31.1558 935.647 30.9526 935.721 30.901C936.565 32.474 937.193 33.8625 937 34.0558C936.5 34.5558 936.5 36.5558 933.5 35.5558C930.5 34.5558 932.5 38.0558 935.5 38.0558C938.5 38.0558 939.5 38.5558 941.5 37.5558C943.5 36.5558 943.5 35.0558 943.5 34.5558C943.5 34.1558 942.833 33.3891 942.5 33.0558C942.833 31.0558 943.4 26.7558 943 25.5558C943.667 23.7224 944.9 19.7558 944.5 18.5558Z" fill="#7B6543"/>
<path d="M894.5 9.55577L895 9.05577C901 4.05577 903 6.05577 906 4.55577C909 3.05577 910.5 2.55577 912.5 2.05577C914.5 1.55577 918 4.55576 919 5.55576C920 6.55576 925.5 4.05576 932 4.55576C937.2 4.95576 941.5 9.38909 943 11.5558C944.6 12.7558 944.667 16.7224 944.5 18.5558C944.9 19.7558 943.667 23.7224 943 25.5558C943.4 26.7558 942.833 31.0558 942.5 33.0558C942.833 33.3891 943.5 34.1558 943.5 34.5558C943.5 35.0558 943.5 36.5558 941.5 37.5558C939.5 38.5558 938.5 38.0558 935.5 38.0558C932.5 38.0558 930.5 34.5558 933.5 35.5558C936.5 36.5558 936.5 34.5558 937 34.0558C937.193 33.8625 936.565 32.474 935.721 30.901M894.5 9.55577C894 9.3891 892.9 9.05577 892.5 9.05577C892 9.05577 890.5 10.0558 891.5 11.0558C892.3 11.8558 891.833 12.0558 891.5 12.0558C890.667 13.0558 889.3 15.6558 890.5 18.0558L891 19.0558M894.5 9.55577C895 9.8891 896.2 10.6558 897 11.0558C897.8 11.4558 897 12.5558 896.5 13.0558M891 19.0558C890.667 19.8891 890 21.6558 890 22.0558C890 22.5558 888.5 23.5558 889 23.5558L890 24.0558H890.5C890.5 24.2224 890.7 24.5558 891.5 24.5558C892.5 24.5558 895 23.5558 895 23.0558C895 22.6558 896.333 22.8891 897 23.0558C897.833 22.8891 899.5 22.4558 899.5 22.0558C899.5 21.5558 898.5 21.0558 899.5 21.0558C900.5 21.0558 901 21.5558 901.5 21.5558C902 21.5558 904 22.5558 904.5 22.0558C904.525 22.0312 904.544 22.032 904.56 22.0558M891 19.0558C891.833 19.2224 893.5 19.6558 893.5 20.0558C893.5 20.5558 894.5 20.0558 895.5 20.0558C896.3 20.0558 895.5 21.7224 895 22.5558M914.5 25.0558C914.5 24.5558 912.5 20.0558 914.5 18.5558M914.5 25.0558C915.863 25.4193 917.999 25.9513 919.725 26.2951M914.5 25.0558C914.5 25.4477 913.886 25.8396 913.62 26.2315M932.5 26.0558C931.333 22.8891 929.3 16.5558 930.5 16.5558M932.5 26.0558C932.5 26.4826 930.603 26.6437 928.326 26.6759M932.5 26.0558C932.5 25.4423 934.382 28.4042 935.721 30.901M928.326 26.6759C926.336 26.704 924.055 26.6335 922.5 26.5558C922.318 26.7377 921.164 26.5818 919.725 26.2951M928.326 26.6759C928.775 27.0418 929.539 28.03 929 29.0558C928.326 30.338 927 32.0558 925.5 31.5558C924 31.0558 924 33.5558 925 34.0558C926 34.5558 928 35.0558 929.5 35.0558C931 35.0558 935.5 33.5558 935.5 33.0558C935.5 32.5558 934.5 32.0558 935 31.5558C935.4 31.1558 935.647 30.9526 935.721 30.901M919.725 26.2951C920.15 27.2153 920.9 29.1558 920.5 29.5558C920 30.0558 922.5 31.5558 922.5 32.0558C922.5 32.5558 923.5 33.0558 923 34.0558C922.5 35.0558 922 35.0558 922.5 35.5558C923 36.0558 923 36.5558 922.5 36.5558C922 36.5558 920.5 34.5558 920.5 34.0558C920.5 33.6558 918.5 32.5558 917.5 32.0558C916.34 30.882 913.967 28.0866 913.759 26.2951L913.62 26.2315M904.56 22.0558C904.856 22.515 903.5 31.5312 903.5 31.0558C903.5 30.5558 903 33.0558 903.5 33.5558C903.9 33.9558 902 35.3891 901 36.0558C900.167 35.7224 898.5 35.2558 898.5 36.0558C898.5 37.0558 898.5 37.5558 899.5 37.5558C900.5 37.5558 906 38.0558 906 37.5558C906.333 37.3891 907 36.9558 907 36.5558C907 36.0558 906.5 35.0558 907 35.0558C907.5 35.0558 913.5 27.0558 913.5 26.5558C913.5 26.4477 913.547 26.3396 913.62 26.2315M904.56 22.0558L905 21.5558C904.5 19.8891 903.6 16.3558 904 15.5558C904.5 14.5558 903 8.55577 906.5 7.05577M893 18.0558C892.5 18.0558 892 19.0558 892 18.5558C891.833 18.2224 891.6 17.5558 892 17.5558M894.5 12.0558C894 12.0558 893 11.9558 893 11.5558" stroke="black" stroke-width="0.5"/>
<path d="M877.5 14C877.333 13.3333 876.8 11.8 876 11C875 10 870 5 863.5 4.5C857 4 855 5 853 4.5C851 4 847 1 846 1C845 1 844 1 840 3.5C837.167 4 830.8 5.6 828 8C827.667 7.66667 826.8 7.1 826 7.5C825.2 7.9 824.667 8.33333 824.5 8.5C824.333 8.83333 824.3 9.5 825.5 9.5C824.333 10.6667 822.2 13.7 823 16.5L823.5 17.5C823 19 821.9 22 821.5 22C821 22 822.5 23.0044 823 22.7522C823.5 22.5 823.5 23.5 824 23.5C824.318 23.5 826.046 22.4919 827.266 21.5C827.844 21.6667 829.1 22 829.5 22C830 22 834 21.5 834 20.5C835 20.6667 837.1 20.7 837.5 19.5L839.5 20L836.5 26C836.167 26.3333 835.9 27.6 837.5 30C839.1 32.4 839.833 33 840 33C840.667 33.3333 842.1 33.9 842.5 33.5C842.67 33.3299 842.786 33.2743 842.863 33.2795C843.553 33.103 843.575 31.353 843.5 30.5L842 29C841.6 28.6 842.833 27.8333 843.5 27.5L843.521 26.715C843.752 28.134 843.89 29.6127 843.902 30.7813C843.914 31.9809 843.792 32.8538 843.5 33C843 33.8333 841.8 35.5 841 35.5C840 35.5 839.5 34 839 34.5C838.5 35 836.5 35.5 839 37C839.5 37.1667 840.6 37.5 841 37.5C841.5 37.5 846.5 37.5 847 37C847.4 36.6 847.5 35.5 847.5 35C847.5 34.6667 847.6 33.9 848 33.5C848.5 33 851.5 26.5 851 25C851.833 25.6667 853.7 26.9 854.5 26.5H858C857.5 28 856.5 31.2 856.5 32C856.5 33 854.5 35 854 34.5C853 34 851.1 33.3 851.5 34.5C852 36 851 36 855 36.5C859 37 862.5 35.5 862 35C861.5 34.5 861 34 861.5 34C862 34 866.5 27 866 26.5L865.943 26.4503C866.595 26.3527 867 26.2079 867 26C867 25 866 25 866 24C868.167 27 872.6 33 873 33C873.5 33 873.5 36.5 870.5 35C869.667 34.8333 868.3 35 869.5 37C871.167 37.1667 874.6 37.4 875 37C876.833 36.5 880.3 34.9 879.5 32.5C879.5 32.3333 879.3 31.9 878.5 31.5C877.7 31.1 877.5 26.6667 877.5 24.5C878 22.1667 878.7 16.8 877.5 14Z" fill="#7B6543"/>
<path d="M828.5 20C828.5 20.365 827.967 20.9298 827.266 21.5M827.266 21.5C826.046 22.4919 824.318 23.5 824 23.5C823.5 23.5 823.5 22.5 823 22.7522C822.5 23.0044 821 22 821.5 22C821.9 22 823 19 823.5 17.5L823 16.5C822.2 13.7 824.333 10.6667 825.5 9.5C824.3 9.5 824.333 8.83333 824.5 8.5C824.667 8.33333 825.2 7.9 826 7.5C826.8 7.1 827.667 7.66667 828 8C830.8 5.6 837.167 4 840 3.5C844 1 845 1 846 1C847 1 851 4 853 4.5C855 5 857 4 863.5 4.5C870 5 875 10 876 11C876.8 11.8 877.333 13.3333 877.5 14C878.7 16.8 878 22.1667 877.5 24.5C877.5 26.6667 877.7 31.1 878.5 31.5C879.3 31.9 879.5 32.3333 879.5 32.5C880.3 34.9 876.833 36.5 875 37C874.6 37.4 871.167 37.1667 869.5 37C868.3 35 869.667 34.8333 870.5 35C873.5 36.5 873.5 33 873 33C872.6 33 868.167 27 866 24M827.266 21.5C827.844 21.6667 829.1 22 829.5 22C830 22 834 21.5 834 20.5C835 20.6667 837.1 20.7 837.5 19.5L839.5 20L836.5 26C836.167 26.3333 835.9 27.6 837.5 30C839.1 32.4 839.833 33 840 33C840.667 33.3333 842.1 33.9 842.5 33.5C842.67 33.3299 842.786 33.2743 842.863 33.2795M843 33.5C843 33.4042 842.967 33.2864 842.863 33.2795M841.5 6C840.667 6.16667 839.1 7.3 839.5 10.5C839.167 11.1667 838.5 12.8 838.5 14C838.5 15.5 840.5 20.5 842 22C842.634 22.6342 843.179 24.6088 843.521 26.715M858 26.5H854.5C853.7 26.9 851.833 25.6667 851 25C851.5 26.5 848.5 33 848 33.5C847.6 33.9 847.5 34.6667 847.5 35C847.5 35.5 847.4 36.6 847 37C846.5 37.5 841.5 37.5 841 37.5C840.6 37.5 839.5 37.1667 839 37C836.5 35.5 838.5 35 839 34.5C839.5 34 840 35.5 841 35.5C841.8 35.5 843 33.8333 843.5 33C843.792 32.8538 843.914 31.9809 843.902 30.7813C843.89 29.6127 843.752 28.134 843.521 26.715M858 26.5C857.5 28 856.5 31.2 856.5 32C856.5 33 854.5 35 854 34.5C853 34 851.1 33.3 851.5 34.5C852 36 851 36 855 36.5C859 37 862.5 35.5 862 35C861.5 34.5 861 34 861.5 34C862 34 866.5 27 866 26.5L865.943 26.4503M858 26.5C860.221 26.6234 864.085 26.7285 865.943 26.4503M866 24C866 25 867 25 867 26C867 26.2079 866.595 26.3527 865.943 26.4503M866 24C866 23 863 13.5 863.5 13M830 9.5C829.578 9.9124 828.587 10.6898 828 10.5C827.413 10.3102 826.755 10.0876 826.5 10M829.5 12.5C829.5 13.6667 829.1 16.2 827.5 17M825.5 17H824.5C825 16 824 16 825 16M842.863 33.2795C843.553 33.103 843.575 31.353 843.5 30.5C843.5 30.5 842.4 29.4 842 29C841.6 28.6 842.833 27.8333 843.5 27.5L843.521 26.715" stroke="black" stroke-width="0.5"/>
<path d="M812 28.5657C811.6 28.1657 809.833 25.7324 809 24.5657C808.5 24.0657 807.5 22.9657 807.5 22.5657C807.5 22.0657 807 13.0657 803.5 10.5657C800 8.06574 800 6.56574 793.5 5.06574C791.333 4.7324 786.1 4.36574 782.5 5.56574C781.833 5.73241 780.5 5.96575 780.5 5.56575C780.5 5.06575 776 2.56575 774 3.06575C772 3.56575 770.5 4.56575 768.5 5.06575C766.5 5.56575 762.5 4.56575 756 9.56575C755 9.23242 753 8.66575 753 9.06575C753 9.56575 750.5 10.5658 753 11.5658C752.167 12.7324 750.7 15.3658 751.5 16.5658C751.333 16.5658 751 16.6658 751 17.0658C751 17.4657 751.667 18.2324 752 18.5658L750 23.0658C750.333 23.5658 751.1 24.4657 751.5 24.0658C751.667 24.2324 752.1 24.5658 752.5 24.5658C753 24.5658 756.5 23.5658 756.5 23.0658C756.516 23.0265 756.532 22.9853 756.548 22.9426C756.707 22.8426 757.22 23.2862 757.5 23.5658C759 22.8991 762 21.3657 762 20.5658C762 19.5658 763.5 20.5658 763 21.5658C762.5 22.5658 758.5 28.5658 758.5 29.0658C758.5 29.5658 758.5 32.0658 758 32.5658C757.5 33.0658 754.5 34.5658 755 35.5658C755.4 36.3657 755.833 36.5658 756 36.5658C756.5 36.3991 757.7 35.9658 758.5 35.5658C759.5 35.0658 762.5 34.0658 763.5 31.5658C763.667 31.0658 764.3 30.0658 765.5 30.0658C767 30.0658 772.5 26.5658 773 24.0658C773.833 24.2324 775.5 25.0658 775.5 27.0658C775.5 29.0658 776.833 32.8991 777.5 34.5658C777.333 35.2324 776.7 36.4658 775.5 36.0658C774 35.5658 772 35.5658 772 36.5658C772 37.5658 773 38.0658 773.5 38.0658C774 38.0658 780.5 38.5658 781.5 37.5658C782.5 36.5658 782.5 35.5658 782.5 35.0658C782.5 34.5658 785 27.5658 784.5 27.0658C784.509 27.0331 784.519 26.9994 784.528 26.9647C784.926 26.9195 787.037 27.4986 789 27.639C789 27.7123 789 33.0658 788.5 34.0658C788.1 34.8657 787 35.3991 786.5 35.5658C784 35.0658 784 35.5658 783.5 35.5658C783 35.5658 784.5 37.0658 785 37.5658C785.5 38.0658 790.5 37.5658 791 37.5658C791.5 37.5658 794 37.0658 794 36.5658C794 36.0658 793 35.5658 794 34.5658C795 33.5658 797.5 28.0658 798 27.5658C798.4 27.1658 797.833 26.3991 797.5 26.0658C799.833 27.5658 804.7 30.5658 805.5 30.5658C806.5 30.5658 808 35.0658 807.5 35.5658C807.1 35.9658 806.333 36.0658 806 36.0658C805.333 36.3991 804.5 37.1657 806.5 37.5658C808.5 37.9658 810 37.3991 810.5 37.0658C811.333 36.3991 812.9 34.7658 812.5 33.5658C813.167 31.8991 814.2 28.6657 813 29.0657C812.833 29.0657 812.4 28.9657 812 28.5657Z" fill="#7B6543"/>
<path d="M756.5 23.0658C756.5 23.5658 753 24.5658 752.5 24.5658C752.1 24.5658 751.667 24.2324 751.5 24.0658C751.1 24.4658 750.333 23.5658 750 23.0658L752 18.5658C751.667 18.2324 751 17.4658 751 17.0658C751 16.6658 751.333 16.5658 751.5 16.5658C750.7 15.3658 752.167 12.7324 753 11.5658C750.5 10.5658 753 9.56575 753 9.06575C753 8.66575 755 9.23242 756 9.56575C762.5 4.56575 766.5 5.56575 768.5 5.06575C770.5 4.56575 772 3.56575 774 3.06575C776 2.56575 780.5 5.06575 780.5 5.56575C780.5 5.96575 781.833 5.73241 782.5 5.56574C786.1 4.36574 791.333 4.7324 793.5 5.06574C800 6.56574 800 8.06574 803.5 10.5657C807 13.0657 807.5 22.0657 807.5 22.5657C807.5 22.9657 808.5 24.0657 809 24.5657C809.833 25.7324 811.6 28.1657 812 28.5657C812.4 28.9657 812.833 29.0657 813 29.0657C814.2 28.6657 813.167 31.8991 812.5 33.5658C812.9 34.7658 811.333 36.3991 810.5 37.0658C810 37.3991 808.5 37.9658 806.5 37.5658C804.5 37.1658 805.333 36.3991 806 36.0658C806.333 36.0658 807.1 35.9658 807.5 35.5658C808 35.0658 806.5 30.5658 805.5 30.5658C804.7 30.5658 799.833 27.5658 797.5 26.0658M756.5 23.0658C756.5 22.6658 757.167 23.2324 757.5 23.5658C759 22.8991 762 21.3658 762 20.5658C762 19.5658 763.5 20.5658 763 21.5658C762.5 22.5658 758.5 28.5658 758.5 29.0658C758.5 29.5658 758.5 32.0658 758 32.5658C757.5 33.0658 754.5 34.5658 755 35.5658C755.4 36.3658 755.833 36.5658 756 36.5658C756.5 36.3991 757.7 35.9658 758.5 35.5658C759.5 35.0658 762.5 34.0658 763.5 31.5658C763.667 31.0658 764.3 30.0658 765.5 30.0658C767 30.0658 772.5 26.5658 773 24.0658M756.5 23.0658C756.833 22.2324 757.3 20.5658 756.5 20.5658C755.7 20.5658 754.167 19.8991 753.5 19.5658M773 24.0658C773.833 24.2324 775.5 25.0658 775.5 27.0658C775.5 29.0658 776.833 32.8991 777.5 34.5658C777.333 35.2324 776.7 36.4658 775.5 36.0658C774 35.5658 772 35.5658 772 36.5658C772 37.5658 773 38.0658 773.5 38.0658C774 38.0658 780.5 38.5658 781.5 37.5658C782.5 36.5658 782.5 35.5658 782.5 35.0658C782.5 34.5658 785 27.5658 784.5 27.0658M773 24.0658C770 20.7324 765.1 12.8658 769.5 8.06575M784.5 27.0658C784.117 26.6831 786.663 27.4719 789 27.639M784.5 27.0658C784.833 25.8991 785.3 23.3657 784.5 22.5657C783.5 21.5658 779.5 19.0658 780 17.0658M797.5 26.0658C796.167 26.3991 793 27.1658 791 27.5658C790.413 27.6831 789.716 27.6903 789 27.639M797.5 26.0658C797.833 26.3991 798.4 27.1658 798 27.5658C797.5 28.0658 795 33.5658 794 34.5658C793 35.5658 794 36.0658 794 36.5658C794 37.0658 791.5 37.5658 791 37.5658C790.5 37.5658 785.5 38.0658 785 37.5658C784.5 37.0658 783 35.5658 783.5 35.5658C784 35.5658 784 35.0658 786.5 35.5658C787 35.3991 788.1 34.8658 788.5 34.0658C789 33.0658 789 27.7123 789 27.639M797.5 26.0658C795.667 23.3991 791.9 16.8658 791.5 12.0658M758 10.5657C758.333 11.0657 758.9 12.0658 758.5 12.0658C758 12.0658 754 12.5658 754 11.5658M758 15.0658C757.667 16.0658 756.8 18.0658 756 18.0658M754 18.0658C753.667 18.2324 753 18.5658 753 18.5658C752.833 18.5658 752.6 18.4658 753 18.0658" stroke="black" stroke-width="0.5"/>
<path d="M737 23C738.167 21.3333 740.3 17.9 739.5 17.5C739.833 16.6667 740.3 14.7 739.5 13.5C738.5 12 738 5.5 729.5 4.5C721 3.5 714.5 5 714 5C713.5 5 709 2 708 2C707 2 705.5 2 702 4.5C699.167 5 693 6.5 691 8.5C690.333 8.83333 688.9 9.5 688.5 9.5C688 9.5 685.5 8.5 685.5 9.5C685.5 10.5 686.5 11 687 11C686.333 11.1667 685 11.9 685 13.5C685 15.5 684.5 16.5 684.5 17C684.5 17.4 684.833 17.8333 685 18V19.5C684.833 20.6667 684.3 23.1 683.5 23.5C683.667 23.6667 684.1 24 684.5 24C685 24 685.5 24.5 686 24.5C686.388 24.5 688.586 23.5952 689.549 22.4883C689.345 23.1655 689.439 23.7653 690.5 23.5C692.1 23.1 693.833 21.6667 694.5 21C694.833 20.6667 695.5 20.3 695.5 21.5C695.5 23 692.5 33 693 33.5C693.5 34 691 36.5 690 36C689.2 35.6 687.667 35.8333 687 36C686.667 36.6667 686.3 38 687.5 38H694.5C695.167 37.8333 696.6 37.1 697 35.5C697.4 33.9 699.5 32.5 700.5 32C701.333 30.6667 703.1 28 703.5 28C704 28 704.5 28 704.5 27.5C704.5 27 705 22.5 705.5 22.5C706 22.5 707.5 22 708 23C708.4 23.8 710.5 24.3333 711.5 24.5C711.667 24.5 712.1 24.7 712.5 25.5C712.9 26.3 714.667 31.5 715.5 34C715.5 34.6667 715.2 35.9 714 35.5C712.5 35 710.5 35.5 710.5 36C710.5 36.5 711.5 38 712.5 38C713.5 38 720 38.5 720 37.5C720.5 36.5 720 37 720 36.5C720 36 721 34.5 721 33.5C721 32.5 722 29.5 721.5 29.5C721.25 29.5 721.25 29 721.375 28.5C721.5 28 721.75 27.5 722 27.5C722.4 27.5 725.5 26.8333 727 26.5C727.167 26.8333 727.5 27.8 727.5 29C727.5 30.5 729 32.5 728.5 33.5C728 34.5 728 35.5 727 35.5C726 35.5 723.5 35 723.5 35.5C723.5 36 722.5 37 723.5 37C724.3 37 726.167 37.6667 727 38L735 36.5C735.167 36 735.4 35 735 35C734.76 35 734.635 34.8845 734.681 34.7645C734.731 34.6349 734.981 34.5 735.5 34.5C736.3 34.5 738.167 33.5 739 33C740 31.8333 742 29.4 742 29C742 28.5 737.5 23 737 23Z" fill="#7B6543"/>
<path d="M711.5 24.5C710.5 24.3333 708.4 23.8 708 23C707.5 22 706 22.5 705.5 22.5C705 22.5 704.5 27 704.5 27.5C704.5 28 704 28 703.5 28C703.1 28 701.333 30.6667 700.5 32C699.5 32.5 697.4 33.9 697 35.5C696.6 37.1 695.167 37.8333 694.5 38C692.667 38 688.7 38 687.5 38C686.3 38 686.667 36.6667 687 36C687.667 35.8333 689.2 35.6 690 36C691 36.5 693.5 34 693 33.5C692.5 33 695.5 23 695.5 21.5C695.5 20.3 694.833 20.6667 694.5 21C693.833 21.6667 692.1 23.1 690.5 23.5C688.9 23.9 689.5 22.3333 690 21.5C690 23 686.5 24.5 686 24.5C685.5 24.5 685 24 684.5 24C684.1 24 683.667 23.6667 683.5 23.5C684.3 23.1 684.833 20.6667 685 19.5V18C684.833 17.8333 684.5 17.4 684.5 17C684.5 16.5 685 15.5 685 13.5C685 11.9 686.333 11.1667 687 11C686.5 11 685.5 10.5 685.5 9.5C685.5 8.5 688 9.5 688.5 9.5C688.9 9.5 690.333 8.83333 691 8.5C693 6.5 699.167 5 702 4.5C705.5 2 707 2 708 2C709 2 713.5 5 714 5C714.5 5 721 3.5 729.5 4.5C738 5.5 738.5 12 739.5 13.5C740.3 14.7 739.833 16.6667 739.5 17.5C740.3 17.9 738.167 21.3333 737 23C737.5 23 742 28.5 742 29C742 29.4 740 31.8333 739 33C738.167 33.5 736.3 34.5 735.5 34.5C734.981 34.5 734.731 34.6349 734.681 34.7645M711.5 24.5C711.667 24.5 712.1 24.7 712.5 25.5C712.9 26.3 714.667 31.5 715.5 34C715.5 34.6667 715.2 35.9 714 35.5C712.5 35 710.5 35.5 710.5 36C710.5 36.5 711.5 38 712.5 38C713.5 38 720 38.5 720 37.5C720.5 36.5 720 37 720 36.5C720 36 721 34.5 721 33.5C721 32.5 722 29.5 721.5 29.5C721.25 29.5 721.25 29 721.375 28.5M711.5 24.5C708.333 21.6667 702.4 15.7 704 14.5M734.681 34.7645C734.635 34.8845 734.76 35 735 35C735.4 35 735.167 36 735 36.5L727 38C726.167 37.6667 724.3 37 723.5 37C722.5 37 723.5 36 723.5 35.5C723.5 35 726 35.5 727 35.5C728 35.5 728 34.5 728.5 33.5C729 32.5 727.5 30.5 727.5 29C727.5 27.8 727.167 26.8333 727 26.5C725.5 26.8333 722.4 27.5 722 27.5C721.75 27.5 721.5 28 721.375 28.5M734.681 34.7645C731.336 33.7529 729.5 32.5 729 32C729.167 31.6667 729.9 31.1 731.5 31.5C733.1 31.9 732.5 31.6667 732 31.5C732.167 31 732.6 30 733 30C733.4 30 735.5 29.6667 736.5 29.5C735 29.5 731.8 29.3 731 28.5C730 27.5 722.5 22 723.5 21.5C723.333 19.1667 723.2 14.4 724 14C724.8 13.6 724.667 11.1667 724.5 10M721.375 28.5C721.583 26.1667 721.9 21.5 721.5 21.5C721 21.5 718 18.5 718 18C718 17.5 715.5 12.5 716.5 12M694.5 16.5C694.167 14.8333 693.3 11.5 692.5 11.5M690 13C690 14 689.8 16.1 689 16.5C688.667 17 687.9 18 687.5 18M690 21C689 20.6667 687 19.9 687 19.5M686.5 17.5L686 18C686.167 18.3333 686.5 18.9 686.5 18.5" stroke="black" stroke-width="0.5"/>
<path d="M675 13.2755C673.833 10.4422 670 4.67551 664 4.27551C656.5 3.77551 650.5 4.77551 649.5 4.77551C648.5 4.77551 645.5 1.27551 644.5 1.27551C643.5 1.27551 640.5 -0.22449 635 3.77551C634.333 4.10884 632.5 4.77551 630.5 4.77551C628.5 4.77551 624.333 7.44218 622.5 8.77551L620.5 7.77551C619.667 7.77551 618.4 8.37551 620 10.7755C619.167 12.1088 617.6 14.9755 618 15.7755C618.5 16.7755 619 17.2755 619 17.7755C619 18.2755 617.5 22.7755 617 22.7755C616.5 22.7755 617.5 23.7755 618.5 23.7755C619.3 23.7755 619.5 24.1088 619.5 24.2755C620.833 23.9422 623.5 23.1755 623.5 22.7755C623.5 22.3755 625.167 22.6088 626 22.7755C626.167 22.7755 626.5 22.6755 626.5 22.2755C626.5 21.8755 628.833 21.1088 630 20.7755C630.5 20.9422 631.5 21.3755 631.5 21.7755C631.5 22.2755 632 20.7755 632.5 20.7755C633 20.7755 634 20.7755 633.5 21.7755C633.1 22.5755 632.667 30.4422 632.5 34.2755C632.167 34.9422 631.2 36.2755 630 36.2755C628.5 36.2755 627.5 34.7755 627 35.7755C626.5 36.7755 626.5 37.7755 627 37.7755C627.5 37.7755 634.5 38.2755 635 37.7755C635.5 37.2755 636.5 35.2755 636.5 34.7755C636.5 34.3755 638.167 32.2755 639 31.2755C640.167 30.2755 642.5 27.8755 642.5 26.2755C642.5 25.588 642.559 25.3732 642.657 25.4279C642.844 25.5324 643.172 26.6193 643.5 27.2755C644 28.2755 645.5 32.2755 646.5 32.2755C647.5 32.2755 648.5 32.7755 649 33.2755C649.4 33.6755 649.833 35.1088 650 35.7755C650.5 36.2755 651.8 37.1755 653 36.7755C654.2 36.3755 652.833 32.6088 652 30.7755C651.333 30.7755 650 29.7755 650 25.7755C650.5 26.2755 651.7 27.2755 652.5 27.2755H657.5C658 28.4422 658.8 30.7755 658 30.7755C657 30.7755 658 31.7755 654.5 30.7755C651 29.7755 655 34.7755 655.5 34.7755C656 34.7755 663.5 36.2755 665.5 33.7755C665.667 33.2755 665.9 32.1755 665.5 31.7755C665.401 31.6763 665.443 31.3084 665.578 30.7755C666.219 31.6088 667.5 33.4755 667.5 34.2755C667.5 35.2755 666 36.2755 665 35.7755C664 35.2755 663 35.7755 662.5 36.2755C662.1 36.6755 663.333 37.4422 664 37.7755C665.5 38.1088 669 38.4755 671 37.2755C673.5 35.7755 673.5 35.2755 674 34.7755C674.5 34.2755 674 33.2755 673.5 32.2755C673.1 31.4755 673.333 26.6088 673.5 24.2755C676.3 19.0755 675.667 14.7755 675 13.2755Z" fill="#7B6543"/>
<path d="M675 13.2755C673.833 10.4422 670 4.67551 664 4.27551C656.5 3.77551 650.5 4.77551 649.5 4.77551C648.5 4.77551 645.5 1.27551 644.5 1.27551C643.5 1.27551 640.5 -0.22449 635 3.77551C634.333 4.10884 632.5 4.77551 630.5 4.77551C628.5 4.77551 624.333 7.44218 622.5 8.77551L620.5 7.77551C619.667 7.77551 618.4 8.37551 620 10.7755C619.167 12.1088 617.6 14.9755 618 15.7755C618.5 16.7755 619 17.2755 619 17.7755C619 18.2755 617.5 22.7755 617 22.7755C616.5 22.7755 617.5 23.7755 618.5 23.7755C619.3 23.7755 619.5 24.1088 619.5 24.2755C620.833 23.9422 623.5 23.1755 623.5 22.7755C623.5 22.3755 625.167 22.6088 626 22.7755C626.167 22.7755 626.5 22.6755 626.5 22.2755C626.5 21.8755 628.833 21.1088 630 20.7755C630.5 20.9422 631.5 21.3755 631.5 21.7755C631.5 22.2755 632 20.7755 632.5 20.7755C633 20.7755 634 20.7755 633.5 21.7755C633.1 22.5755 632.667 30.4422 632.5 34.2755C632.167 34.9422 631.2 36.2755 630 36.2755C628.5 36.2755 627.5 34.7755 627 35.7755C626.5 36.7755 626.5 37.7755 627 37.7755C627.5 37.7755 634.5 38.2755 635 37.7755C635.5 37.2755 636.5 35.2755 636.5 34.7755C636.5 34.3755 638.167 32.2755 639 31.2755C640.167 30.2755 642.5 27.8755 642.5 26.2755C642.5 25.588 642.559 25.3732 642.657 25.4279M675 13.2755C675.8 18.0755 670.667 22.6088 668 24.2755C667.248 26.03 665.987 29.1604 665.578 30.7755M675 13.2755C675.667 14.7755 676.3 19.0755 673.5 24.2755C673.333 26.6088 673.1 31.4755 673.5 32.2755C674 33.2755 674.5 34.2755 674 34.7755C673.5 35.2755 673.5 35.7755 671 37.2755C669 38.4755 665.5 38.1088 664 37.7755C663.333 37.4422 662.1 36.6755 662.5 36.2755C663 35.7755 664 35.2755 665 35.7755C666 36.2755 667.5 35.2755 667.5 34.2755C667.5 33.4755 666.219 31.6088 665.578 30.7755M650 25.7755C650 29.7755 651.333 30.7755 652 30.7755C652.833 32.6088 654.2 36.3755 653 36.7755C651.8 37.1755 650.5 36.2755 650 35.7755C649.833 35.1088 649.4 33.6755 649 33.2755C648.5 32.7755 647.5 32.2755 646.5 32.2755C645.5 32.2755 644 28.2755 643.5 27.2755C643.172 26.6193 642.844 25.5324 642.657 25.4279M650 25.7755C650 21.7755 650 19.7755 650 19.2755C650.167 18.6088 650 16.7755 648 14.7755C646 12.7755 646.5 12.9422 647 13.2755M650 25.7755C650.5 26.2755 651.7 27.2755 652.5 27.2755C653.3 27.2755 656.167 27.2755 657.5 27.2755M657.5 27.2755C656.667 24.4422 655.3 18.5755 656.5 17.7755C658 16.2755 661 12.7755 661 10.7755M657.5 27.2755C658 28.4422 658.8 30.7755 658 30.7755C657 30.7755 658 31.7755 654.5 30.7755C651 29.7755 655 34.7755 655.5 34.7755C656 34.7755 663.5 36.2755 665.5 33.7755C665.667 33.2755 665.9 32.1755 665.5 31.7755C665.401 31.6763 665.443 31.3084 665.578 30.7755M642.657 25.4279C642.605 24.5438 642.3 22.6755 641.5 22.2755C640.5 21.7755 636.5 20.2755 636 18.2755C635.5 16.2755 633.5 9.77551 636.5 7.27551M622.5 10.7755L621.5 10.2755M624.5 12.7755C624.167 14.1088 623.3 16.7755 622.5 16.7755M621.5 17.2755L620.5 17.7755C620.167 17.4422 619.6 16.7755 620 16.7755M623.5 21.2755C623.333 20.6088 622.7 19.1755 621.5 18.7755C620.3 18.3755 619.333 18.2755 619 18.2755" stroke="black" stroke-width="0.5"/>
<path d="M604.5 12.5C603 9.66667 597.9 4.10001 589.5 4.50001C579 5.00001 581.5 5 580.5 5C579.5 5 576 1 572.5 1C569 1 567 3.5 566.5 3.5C566 3.5 558.5 5 555 8C554.5 7.66667 553.3 7.1 552.5 7.5C551.7 7.9 551.167 8.66667 551 9C551 9.33333 551.2 10 552 10C550.833 11.3333 548.8 14.6 550 17C550.161 17.8037 550.011 19.9405 548.207 22.2444C548.138 22.663 548.4 23.5 550 23.5C551.367 23.5 552.968 23.2663 554.004 22C554.551 22.2519 555.815 22.7044 556.5 22.5C557.356 22.2444 560 21 560.5 21C561 21 562.5 20.5 562.5 21C562.5 21.5 565 21 565.5 21C566 21 567.5 20 567 21C566.5 22 563 26 563 26.5C563 27 562.5 26.5 565 31.5C565.167 32.3333 565.6 34 566 34C566.5 34 569 36.5 569.5 33.5C569.938 30.8706 570.376 30.9299 570.478 30.648C570.493 31.5987 570.518 33.5 570.5 33.5C570.478 33.5 570.5 35.5 569.5 35.5C569.167 35.6667 568.4 36 568 36C567.5 36 566.5 35 564.5 35.5C562.5 36 565.5 37.5 567 37.5C568.5 37.5 574 38 574 37.5C574.333 37.1667 575 36.3 575 35.5C575 34.5 575 33 575.5 33C575.9 33 577.333 29 578 27C578.167 26.8333 578.6 26.5 579 26.5C579.5 26.5 584.5 28 584.5 27.5C584.667 28.8333 584.9 31.6 584.5 32C584 32.5 584 33.5 583.5 34C583 34.5 581.5 35.5 581 35.5C580.5 35.5 578.5 35 578.5 35.5C578.5 36 578.5 37.5 579.5 37.5C580.5 37.5 585.5 38.5 588.5 37.5C588.833 37.3333 589.5 36.8 589.5 36C589.5 35 588.5 34.5 591 32.5C592.208 30.8388 594.593 27.508 595.328 26.3021C594.943 27.2378 600.51 33.0197 601 34C601.4 34.8 600.167 35.6667 599.5 36C599.167 35.8333 598.3 35.6 597.5 36C596.7 36.4 597.5 37.1667 598 37.5H603C606.5 37.5 607 33.5 607 32.5C607 31.5 606 31.5 606 30.5V28C605.833 27.8333 605.5 27.2 605.5 26L605.5 23.5C605.9 18.7 605.667 16.5 605.5 16C605.5 14.4 604.833 13 604.5 12.5Z" fill="#7B6543"/>
<path d="M604.5 12.5C603 9.66667 597.9 4.10001 589.5 4.50001C579 5.00001 581.5 5 580.5 5C579.5 5 576 1 572.5 1C569 1 567 3.5 566.5 3.5C566 3.5 558.5 5 555 8C554.5 7.66667 553.3 7.1 552.5 7.5C551.7 7.9 551.167 8.66667 551 9C551 9.33333 551.2 10 552 10M604.5 12.5C604.833 13.5 604.9 15.7 602.5 16.5M604.5 12.5C604.833 13 605.5 14.4 605.5 16C605.667 16.5 605.9 18.7 605.5 23.5C605.5 23.8333 605.5 24.8 605.5 26C605.5 27.2 605.833 27.8333 606 28C606 28.5 606 29.7 606 30.5C606 31.5 607 31.5 607 32.5C607 33.5 606.5 37.5 603 37.5C600.2 37.5 598.5 37.5 598 37.5C597.5 37.1667 596.7 36.4 597.5 36C598.3 35.6 599.167 35.8333 599.5 36C600.167 35.6667 601.4 34.8 601 34C600.5 33 594.717 27.0033 595.358 26.2517M552 10C552.8 10 554.333 10.6667 555 11M552 10C550.833 11.3333 548.8 14.6 550 17C550.161 17.8037 550.011 19.9405 548.207 22.2444M548 22.5C548.071 22.4146 548.14 22.3294 548.207 22.2444M548.207 22.2444C548.138 22.663 548.4 23.5 550 23.5C551.367 23.5 552.968 23.2663 554.004 22M554.004 22C554.484 21.4141 554.842 20.6071 555 19.5C553.667 19.3333 551 18.8 551 18M554.004 22C554.551 22.2519 555.815 22.7044 556.5 22.5C557.356 22.2444 560 21 560.5 21C561 21 562.5 20.5 562.5 21C562.5 21.5 565 21 565.5 21C566 21 567.5 20 567 21M567 21C566.5 22 563 26 563 26.5C563 27 562.5 26.5 565 31.5C565.167 32.3333 565.6 34 566 34C566.5 34 569 36.5 569.5 33.5C569.938 30.8706 570.376 30.9299 570.478 30.648M567 21C567.167 20.8333 567.5 20.4 567.5 20C567.5 19.5 565.5 16.5 565.5 15.5C565.5 14.5 564 9.5 566.5 7.5M577.5 13.5C577.333 14.3333 576.9 16.2 576.5 17C576 18 579 22.5 579 23C579 23.5 574 27.5 572 28C570.4 28.4 570 29.1667 570 29.5C570.167 29.6667 570.5 30.1 570.5 30.5C570.5 30.5618 570.492 30.6083 570.478 30.648M570.478 30.648C570.493 31.5987 570.518 33.5 570.5 33.5C570.478 33.5 570.5 35.5 569.5 35.5C569.167 35.6667 568.4 36 568 36C567.5 36 566.5 35 564.5 35.5C562.5 36 565.5 37.5 567 37.5C568.5 37.5 574 38 574 37.5C574.333 37.1667 575 36.3 575 35.5C575 34.5 575 33 575.5 33C575.9 33 577.333 29 578 27C578.167 26.8333 578.6 26.5 579 26.5C579.5 26.5 584.5 28 584.5 27.5M584.5 27.5C584.5 27 584.5 22 585 21C585.4 20.2 587.5 15 588.5 12.5M584.5 27.5C584.667 28.8333 584.9 31.6 584.5 32C584 32.5 584 33.5 583.5 34C583 34.5 581.5 35.5 581 35.5C580.5 35.5 578.5 35 578.5 35.5C578.5 36 578.5 37.5 579.5 37.5C580.5 37.5 585.5 38.5 588.5 37.5C588.833 37.3333 589.5 36.8 589.5 36C589.5 35 588.5 34.5 591 32.5C592.225 30.815 594.662 27.4123 595.358 26.2517M602.5 16.5C602 21.5 596 25 595.5 26C595.468 26.0647 595.42 26.1495 595.358 26.2517M602.5 16.5C602.5 15.3333 602.3 12.9 601.5 12.5M557 9.5C557.5 10 558 11.1 556 11.5C556.333 13 556.4 16.2 554 17M553 17.5L551.5 17C551.5 16.8333 551.6 16.5 552 16.5" stroke="black" stroke-width="0.5"/>
</svg>
